<?xml version="1.0" encoding="UTF-8"?>
<svg xmlns="http://www.w3.org/2000/svg" xmlns:xlink="http://www.w3.org/1999/xlink" width="288px" height="252px" viewBox="0 0 288 252" version="1.1" id="Fig:dens">
  <metadata xmlns:gridsvg="http://www.stat.auckland.ac.nz/~paul/R/gridSVG/">
    <gridsvg:generator name="gridSVG" version="1.7-1" time="2020-04-26 10:55:29"/>
    <gridsvg:argument name="name" value="./results/normalized_quality/dens.svg"/>
    <gridsvg:argument name="exportCoords" value="none"/>
    <gridsvg:argument name="exportMappings" value="none"/>
    <gridsvg:argument name="exportJS" value="none"/>
    <gridsvg:argument name="res" value="72"/>
    <gridsvg:argument name="prefix" value="Fig:dens"/>
    <gridsvg:argument name="addClasses" value="FALSE"/>
    <gridsvg:argument name="indent" value="TRUE"/>
    <gridsvg:argument name="htmlWrapper" value="FALSE"/>
    <gridsvg:argument name="usePaths" value="none"/>
    <gridsvg:argument name="uniqueNames" value="TRUE"/>
    <gridsvg:separator name="id.sep" value="."/>
    <gridsvg:separator name="gPath.sep" value="::"/>
    <gridsvg:separator name="vpPath.sep" value="::"/>
  </metadata>
  <g transform="translate(0, 252) scale(1, -1)">
    <g id="Fig:densgridSVG" fill="none" stroke="rgb(0,0,0)" stroke-dasharray="none" stroke-width="0.75" font-size="12" font-family="Helvetica, Arial, FreeSans, Liberation Sans, Nimbus Sans L, sans-serif" opacity="1" stroke-linecap="round" stroke-linejoin="round" stroke-miterlimit="10" stroke-opacity="1" fill-opacity="0" font-weight="normal" font-style="normal">
      <g id="Fig:densplot_01.background.1">
        <rect id="Fig:densplot_01.background.1.1" x="0" y="0" width="288" height="252" transform="" fill="none" stroke="none" stroke-opacity="0" fill-opacity="0"/>
      </g>
      <g id="Fig:densplot_01.toplevel.vp.1" font-size="12">
        <g id="Fig:densplot_01.ylab.vp.1">
          <g id="Fig:densplot_01.ylab.1">
            <g id="Fig:densplot_01.ylab.1.1" transform="translate(10.31, 138.09)" stroke-width="0.1">
              <g id="Fig:densplot_01.ylab.1.1.scale" transform="scale(1, -1)">
                <text x="0" y="0" id="Fig:densplot_01.ylab.1.1.text" transform="rotate(-90)" text-anchor="middle" opacity="1" stroke="rgb(0,0,0)" fill="rgb(0,0,0)" stroke-opacity="1" fill-opacity="1" font-size="12" font-weight="normal" font-style="normal">
                  <tspan id="Fig:densplot_01.ylab.1.1.tspan.1" dy="4.31" x="0">Density</tspan>
                </text>
              </g>
            </g>
          </g>
        </g>
        <g id="Fig:densplot_01.figure.vp.1"/>
        <defs>
          <clipPath id="Fig:densplot_01.panel.1.1.vp.1.clipPath">
            <rect x="44.8" y="42.19" width="231.2" height="191.81" fill="none" stroke="none"/>
          </clipPath>
        </defs>
        <g id="Fig:densplot_01.panel.1.1.vp.1" clip-path="url(#Fig:densplot_01.panel.1.1.vp.1.clipPath)"/>
        <g id="Fig:densplot_01.strip.1.1.off.vp.1"/>
        <g id="Fig:densplot_01.strip.left.1.1.off.vp.1">
          <g id="Fig:densplot_01.ticks.left.panel.1.1.1">
            <polyline id="Fig:densplot_01.ticks.left.panel.1.1.1.1" points="44.8,53.95 39.13,53.95" stroke="rgb(0,0,0)" opacity="1" stroke-dasharray="none" stroke-width="0.75" stroke-opacity="1" fill="none"/>
            <polyline id="Fig:densplot_01.ticks.left.panel.1.1.1.2" points="44.8,100.69 39.13,100.69" stroke="rgb(0,0,0)" opacity="1" stroke-dasharray="none" stroke-width="0.75" stroke-opacity="1" fill="none"/>
            <polyline id="Fig:densplot_01.ticks.left.panel.1.1.1.3" points="44.8,147.44 39.13,147.44" stroke="rgb(0,0,0)" opacity="1" stroke-dasharray="none" stroke-width="0.75" stroke-opacity="1" fill="none"/>
            <polyline id="Fig:densplot_01.ticks.left.panel.1.1.1.4" points="44.8,194.19 39.13,194.19" stroke="rgb(0,0,0)" opacity="1" stroke-dasharray="none" stroke-width="0.75" stroke-opacity="1" fill="none"/>
          </g>
          <g id="Fig:densplot_01.ticklabels.left.panel.1.1.1">
            <g id="Fig:densplot_01.ticklabels.left.panel.1.1.1.1" transform="translate(33.47, 53.95)" stroke-width="0.1">
              <g id="Fig:densplot_01.ticklabels.left.panel.1.1.1.1.scale" transform="scale(1, -1)">
                <text x="0" y="0" id="Fig:densplot_01.ticklabels.left.panel.1.1.1.1.text" transform="rotate(-90)" text-anchor="middle" stroke="rgb(0,0,0)" opacity="1" fill="rgb(0,0,0)" stroke-opacity="1" fill-opacity="1" font-size="9.6" font-weight="normal" font-style="normal">
                  <tspan id="Fig:densplot_01.ticklabels.left.panel.1.1.1.1.tspan.1" dy="0" x="0">0.00</tspan>
                </text>
              </g>
            </g>
            <g id="Fig:densplot_01.ticklabels.left.panel.1.1.1.2" transform="translate(33.47, 100.69)" stroke-width="0.1">
              <g id="Fig:densplot_01.ticklabels.left.panel.1.1.1.2.scale" transform="scale(1, -1)">
                <text x="0" y="0" id="Fig:densplot_01.ticklabels.left.panel.1.1.1.2.text" transform="rotate(-90)" text-anchor="middle" stroke="rgb(0,0,0)" opacity="1" fill="rgb(0,0,0)" stroke-opacity="1" fill-opacity="1" font-size="9.6" font-weight="normal" font-style="normal">
                  <tspan id="Fig:densplot_01.ticklabels.left.panel.1.1.1.2.tspan.1" dy="0" x="0">0.05</tspan>
                </text>
              </g>
            </g>
            <g id="Fig:densplot_01.ticklabels.left.panel.1.1.1.3" transform="translate(33.47, 147.44)" stroke-width="0.1">
              <g id="Fig:densplot_01.ticklabels.left.panel.1.1.1.3.scale" transform="scale(1, -1)">
                <text x="0" y="0" id="Fig:densplot_01.ticklabels.left.panel.1.1.1.3.text" transform="rotate(-90)" text-anchor="middle" stroke="rgb(0,0,0)" opacity="1" fill="rgb(0,0,0)" stroke-opacity="1" fill-opacity="1" font-size="9.6" font-weight="normal" font-style="normal">
                  <tspan id="Fig:densplot_01.ticklabels.left.panel.1.1.1.3.tspan.1" dy="0" x="0">0.10</tspan>
                </text>
              </g>
            </g>
            <g id="Fig:densplot_01.ticklabels.left.panel.1.1.1.4" transform="translate(33.47, 194.19)" stroke-width="0.1">
              <g id="Fig:densplot_01.ticklabels.left.panel.1.1.1.4.scale" transform="scale(1, -1)">
                <text x="0" y="0" id="Fig:densplot_01.ticklabels.left.panel.1.1.1.4.text" transform="rotate(-90)" text-anchor="middle" stroke="rgb(0,0,0)" opacity="1" fill="rgb(0,0,0)" stroke-opacity="1" fill-opacity="1" font-size="9.6" font-weight="normal" font-style="normal">
                  <tspan id="Fig:densplot_01.ticklabels.left.panel.1.1.1.4.tspan.1" dy="0" x="0">0.15</tspan>
                </text>
              </g>
            </g>
          </g>
        </g>
        <g id="Fig:densplot_01.panel.1.1.off.vp.1">
          <g id="Fig:densplot_01.ticks.bottom.panel.1.1.1">
            <polyline id="Fig:densplot_01.ticks.bottom.panel.1.1.1.1" points="65.39,42.19 65.39,36.52" stroke="rgb(0,0,0)" opacity="1" stroke-dasharray="none" stroke-width="0.75" stroke-opacity="1" fill="none"/>
            <polyline id="Fig:densplot_01.ticks.bottom.panel.1.1.1.2" points="100.93,42.19 100.93,36.52" stroke="rgb(0,0,0)" opacity="1" stroke-dasharray="none" stroke-width="0.75" stroke-opacity="1" fill="none"/>
            <polyline id="Fig:densplot_01.ticks.bottom.panel.1.1.1.3" points="136.47,42.19 136.47,36.52" stroke="rgb(0,0,0)" opacity="1" stroke-dasharray="none" stroke-width="0.75" stroke-opacity="1" fill="none"/>
            <polyline id="Fig:densplot_01.ticks.bottom.panel.1.1.1.4" points="172.01,42.19 172.01,36.52" stroke="rgb(0,0,0)" opacity="1" stroke-dasharray="none" stroke-width="0.75" stroke-opacity="1" fill="none"/>
            <polyline id="Fig:densplot_01.ticks.bottom.panel.1.1.1.5" points="207.55,42.19 207.55,36.52" stroke="rgb(0,0,0)" opacity="1" stroke-dasharray="none" stroke-width="0.75" stroke-opacity="1" fill="none"/>
            <polyline id="Fig:densplot_01.ticks.bottom.panel.1.1.1.6" points="243.09,42.19 243.09,36.52" stroke="rgb(0,0,0)" opacity="1" stroke-dasharray="none" stroke-width="0.75" stroke-opacity="1" fill="none"/>
          </g>
          <g id="Fig:densplot_01.ticklabels.bottom.panel.1.1.1">
            <g id="Fig:densplot_01.ticklabels.bottom.panel.1.1.1.1" transform="translate(65.39, 30.85)" stroke-width="0.1">
              <g id="Fig:densplot_01.ticklabels.bottom.panel.1.1.1.1.scale" transform="scale(1, -1)">
                <text x="0" y="0" id="Fig:densplot_01.ticklabels.bottom.panel.1.1.1.1.text" text-anchor="middle" stroke="rgb(0,0,0)" opacity="1" fill="rgb(0,0,0)" stroke-opacity="1" fill-opacity="1" font-size="9.6" font-weight="normal" font-style="normal">
                  <tspan id="Fig:densplot_01.ticklabels.bottom.panel.1.1.1.1.tspan.1" dy="7.18" x="0">2</tspan>
                </text>
              </g>
            </g>
            <g id="Fig:densplot_01.ticklabels.bottom.panel.1.1.1.2" transform="translate(100.93, 30.85)" stroke-width="0.1">
              <g id="Fig:densplot_01.ticklabels.bottom.panel.1.1.1.2.scale" transform="scale(1, -1)">
                <text x="0" y="0" id="Fig:densplot_01.ticklabels.bottom.panel.1.1.1.2.text" text-anchor="middle" stroke="rgb(0,0,0)" opacity="1" fill="rgb(0,0,0)" stroke-opacity="1" fill-opacity="1" font-size="9.6" font-weight="normal" font-style="normal">
                  <tspan id="Fig:densplot_01.ticklabels.bottom.panel.1.1.1.2.tspan.1" dy="7.18" x="0">4</tspan>
                </text>
              </g>
            </g>
            <g id="Fig:densplot_01.ticklabels.bottom.panel.1.1.1.3" transform="translate(136.47, 30.85)" stroke-width="0.1">
              <g id="Fig:densplot_01.ticklabels.bottom.panel.1.1.1.3.scale" transform="scale(1, -1)">
                <text x="0" y="0" id="Fig:densplot_01.ticklabels.bottom.panel.1.1.1.3.text" text-anchor="middle" stroke="rgb(0,0,0)" opacity="1" fill="rgb(0,0,0)" stroke-opacity="1" fill-opacity="1" font-size="9.6" font-weight="normal" font-style="normal">
                  <tspan id="Fig:densplot_01.ticklabels.bottom.panel.1.1.1.3.tspan.1" dy="7.18" x="0">6</tspan>
                </text>
              </g>
            </g>
            <g id="Fig:densplot_01.ticklabels.bottom.panel.1.1.1.4" transform="translate(172.01, 30.85)" stroke-width="0.1">
              <g id="Fig:densplot_01.ticklabels.bottom.panel.1.1.1.4.scale" transform="scale(1, -1)">
                <text x="0" y="0" id="Fig:densplot_01.ticklabels.bottom.panel.1.1.1.4.text" text-anchor="middle" stroke="rgb(0,0,0)" opacity="1" fill="rgb(0,0,0)" stroke-opacity="1" fill-opacity="1" font-size="9.6" font-weight="normal" font-style="normal">
                  <tspan id="Fig:densplot_01.ticklabels.bottom.panel.1.1.1.4.tspan.1" dy="7.18" x="0">8</tspan>
                </text>
              </g>
            </g>
            <g id="Fig:densplot_01.ticklabels.bottom.panel.1.1.1.5" transform="translate(207.55, 30.85)" stroke-width="0.1">
              <g id="Fig:densplot_01.ticklabels.bottom.panel.1.1.1.5.scale" transform="scale(1, -1)">
                <text x="0" y="0" id="Fig:densplot_01.ticklabels.bottom.panel.1.1.1.5.text" text-anchor="middle" stroke="rgb(0,0,0)" opacity="1" fill="rgb(0,0,0)" stroke-opacity="1" fill-opacity="1" font-size="9.6" font-weight="normal" font-style="normal">
                  <tspan id="Fig:densplot_01.ticklabels.bottom.panel.1.1.1.5.tspan.1" dy="7.18" x="0">10</tspan>
                </text>
              </g>
            </g>
            <g id="Fig:densplot_01.ticklabels.bottom.panel.1.1.1.6" transform="translate(243.09, 30.85)" stroke-width="0.1">
              <g id="Fig:densplot_01.ticklabels.bottom.panel.1.1.1.6.scale" transform="scale(1, -1)">
                <text x="0" y="0" id="Fig:densplot_01.ticklabels.bottom.panel.1.1.1.6.text" text-anchor="middle" stroke="rgb(0,0,0)" opacity="1" fill="rgb(0,0,0)" stroke-opacity="1" fill-opacity="1" font-size="9.6" font-weight="normal" font-style="normal">
                  <tspan id="Fig:densplot_01.ticklabels.bottom.panel.1.1.1.6.tspan.1" dy="7.18" x="0">12</tspan>
                </text>
              </g>
            </g>
          </g>
        </g>
        <defs>
          <clipPath id="Fig:densplot_01.panel.1.1.vp.2.clipPath">
            <rect x="44.8" y="42.19" width="231.2" height="191.81" fill="none" stroke="none"/>
          </clipPath>
        </defs>
        <g id="Fig:densplot_01.panel.1.1.vp.2" clip-path="url(#Fig:densplot_01.panel.1.1.vp.2.clipPath)">
          <g id="Fig:densplot_01.xyplot.lines.group.1.panel.1.1.1">
            <polyline id="Fig:densplot_01.xyplot.lines.group.1.panel.1.1.1.1" points="59.24,53.99 59.63,54 60.03,54.02 60.43,54.04 60.82,54.07 61.22,54.11 61.61,54.17 62.01,54.23 62.41,54.32 62.8,54.43 63.2,54.56 63.59,54.73 63.99,54.93 64.39,55.17 64.78,55.46 65.18,55.82 65.57,56.24 65.97,56.74 66.37,57.32 66.76,57.99 67.16,58.75 67.55,59.63 67.95,60.64 68.35,61.77 68.74,63.04 69.14,64.44 69.53,65.98 69.93,67.66 70.33,69.49 70.72,71.48 71.12,73.62 71.51,75.89 71.91,78.3 72.3,80.82 72.7,83.46 73.1,86.21 73.49,89.06 73.89,92 74.28,94.99 74.68,98.03 75.08,101.11 75.47,104.22 75.87,107.33 76.26,110.43 76.66,113.51 77.06,116.56 77.45,119.57 77.85,122.52 78.24,125.41 78.64,128.23 79.04,130.97 79.43,133.62 79.83,136.18 80.22,138.64 80.62,141.01 81.02,143.29 81.41,145.46 81.81,147.52 82.2,149.47 82.6,151.31 83,153.05 83.39,154.68 83.79,156.21 84.18,157.64 84.58,158.96 84.98,160.17 85.37,161.29 85.77,162.32 86.16,163.26 86.56,164.13 86.95,164.92 87.35,165.64 87.75,166.29 88.14,166.89 88.54,167.44 88.93,167.95 89.33,168.43 89.73,168.88 90.12,169.31 90.52,169.72 90.91,170.12 91.31,170.5 91.71,170.88 92.1,171.25 92.5,171.61 92.89,171.96 93.29,172.31 93.69,172.65 94.08,172.98 94.48,173.3 94.87,173.61 95.27,173.91 95.67,174.2 96.06,174.47 96.46,174.72 96.85,174.96 97.25,175.19 97.65,175.4 98.04,175.6 98.44,175.78 98.83,175.96 99.23,176.12 99.62,176.28 100.02,176.43 100.42,176.58 100.81,176.74 101.21,176.9 101.6,177.07 102,177.25 102.4,177.45 102.79,177.68 103.19,177.92 103.58,178.19 103.98,178.48 104.38,178.81 104.77,179.17 105.17,179.56 105.56,179.98 105.96,180.42 106.36,180.9 106.75,181.4 107.15,181.92 107.54,182.47 107.94,183.03 108.34,183.61 108.73,184.2 109.13,184.8 109.52,185.41 109.92,186.02 110.32,186.63 110.71,187.24 111.11,187.86 111.5,188.47 111.9,189.08 112.3,189.7 112.69,190.31 113.09,190.92 113.48,191.52 113.88,192.14 114.27,192.75 114.67,193.36 115.07,193.98 115.46,194.61 115.86,195.24 116.25,195.87 116.65,196.51 117.05,197.15 117.44,197.8 117.84,198.46 118.23,199.12 118.63,199.78 119.03,200.44 119.42,201.1 119.82,201.77 120.21,202.43 120.61,203.09 121.01,203.75 121.4,204.4 121.8,205.05 122.19,205.69 122.59,206.34 122.99,206.97 123.38,207.6 123.78,208.23 124.17,208.85 124.57,209.47 124.97,210.08 125.36,210.69 125.76,211.29 126.15,211.88 126.55,212.47 126.94,213.03 127.34,213.59 127.74,214.13 128.13,214.64 128.53,215.14 128.92,215.61 129.32,216.05 129.72,216.45 130.11,216.82 130.51,217.15 130.9,217.44 131.3,217.69 131.7,217.89 132.09,218.05 132.49,218.17 132.88,218.23 133.28,218.25 133.68,218.22 134.07,218.16 134.47,218.05 134.86,217.9 135.26,217.7 135.66,217.47 136.05,217.2 136.45,216.89 136.84,216.55 137.24,216.18 137.64,215.77 138.03,215.33 138.43,214.85 138.82,214.34 139.22,213.81 139.62,213.24 140.01,212.64 140.41,212.02 140.8,211.36 141.2,210.67 141.59,209.95 141.99,209.21 142.39,208.44 142.78,207.64 143.18,206.82 143.57,205.96 143.97,205.08 144.37,204.17 144.76,203.24 145.16,202.28 145.55,201.3 145.95,200.29 146.35,199.26 146.74,198.21 147.14,197.13 147.53,196.03 147.93,194.91 148.33,193.77 148.72,192.61 149.12,191.44 149.51,190.26 149.91,189.06 150.31,187.85 150.7,186.64 151.1,185.42 151.49,184.2 151.89,182.99 152.29,181.77 152.68,180.56 153.08,179.35 153.47,178.15 153.87,176.96 154.26,175.78 154.66,174.61 155.06,173.46 155.45,172.33 155.85,171.21 156.24,170.12 156.64,169.04 157.04,167.99 157.43,166.96 157.83,165.96 158.22,165 158.62,164.07 159.02,163.17 159.41,162.32 159.81,161.5 160.2,160.73 160.6,160 161,159.33 161.39,158.7 161.79,158.11 162.18,157.57 162.58,157.06 162.98,156.6 163.37,156.17 163.77,155.78 164.16,155.42 164.56,155.08 164.96,154.76 165.35,154.45 165.75,154.15 166.14,153.85 166.54,153.56 166.94,153.26 167.33,152.96 167.73,152.65 168.12,152.33 168.52,152 168.91,151.66 169.31,151.31 169.71,150.94 170.1,150.56 170.5,150.17 170.89,149.78 171.29,149.37 171.69,148.95 172.08,148.53 172.48,148.11 172.87,147.69 173.27,147.26 173.67,146.83 174.06,146.41 174.46,145.99 174.85,145.58 175.25,145.17 175.65,144.77 176.04,144.38 176.44,144 176.83,143.62 177.23,143.26 177.63,142.91 178.02,142.57 178.42,142.24 178.81,141.92 179.21,141.62 179.61,141.33 180,141.06 180.4,140.8 180.79,140.56 181.19,140.34 181.58,140.13 181.98,139.94 182.38,139.76 182.77,139.6 183.17,139.46 183.56,139.32 183.96,139.2 184.36,139.08 184.75,138.97 185.15,138.86 185.54,138.75 185.94,138.63 186.34,138.51 186.73,138.37 187.13,138.23 187.52,138.07 187.92,137.89 188.32,137.69 188.71,137.48 189.11,137.24 189.5,136.98 189.9,136.71 190.3,136.41 190.69,136.1 191.09,135.77 191.48,135.42 191.88,135.06 192.28,134.68 192.67,134.28 193.07,133.87 193.46,133.45 193.86,133.01 194.26,132.56 194.65,132.08 195.05,131.6 195.44,131.09 195.84,130.57 196.23,130.03 196.63,129.48 197.03,128.91 197.42,128.32 197.82,127.71 198.21,127.09 198.61,126.46 199.01,125.82 199.4,125.17 199.8,124.52 200.19,123.86 200.59,123.19 200.99,122.53 201.38,121.86 201.78,121.2 202.17,120.54 202.57,119.88 202.97,119.24 203.36,118.59 203.76,117.96 204.15,117.33 204.55,116.7 204.95,116.09 205.34,115.48 205.74,114.88 206.13,114.29 206.53,113.7 206.93,113.13 207.32,112.56 207.72,112 208.11,111.45 208.51,110.9 208.9,110.37 209.3,109.84 209.7,109.32 210.09,108.8 210.49,108.29 210.88,107.79 211.28,107.29 211.68,106.79 212.07,106.29 212.47,105.79 212.86,105.29 213.26,104.79 213.66,104.29 214.05,103.78 214.45,103.26 214.84,102.74 215.24,102.22 215.64,101.68 216.03,101.15 216.43,100.6 216.82,100.05 217.22,99.5 217.62,98.94 218.01,98.37 218.41,97.81 218.8,97.23 219.2,96.66 219.6,96.08 219.99,95.5 220.39,94.91 220.78,94.33 221.18,93.74 221.58,93.15 221.97,92.55 222.37,91.95 222.76,91.35 223.16,90.75 223.55,90.15 223.95,89.54 224.35,88.93 224.74,88.33 225.14,87.72 225.53,87.12 225.93,86.52 226.33,85.92 226.72,85.33 227.12,84.75 227.51,84.18 227.91,83.61 228.31,83.06 228.7,82.52 229.1,82 229.49,81.48 229.89,80.99 230.29,80.5 230.68,80.03 231.08,79.57 231.47,79.12 231.87,78.69 232.27,78.27 232.66,77.86 233.06,77.46 233.45,77.07 233.85,76.69 234.25,76.31 234.64,75.95 235.04,75.59 235.43,75.23 235.83,74.88 236.22,74.54 236.62,74.2 237.02,73.87 237.41,73.54 237.81,73.22 238.2,72.9 238.6,72.59 239,72.27 239.39,71.97 239.79,71.66 240.18,71.35 240.58,71.04 240.98,70.73 241.37,70.41 241.77,70.08 242.16,69.75 242.56,69.4 242.96,69.04 243.35,68.66 243.75,68.26 244.14,67.84 244.54,67.41 244.94,66.95 245.33,66.47 245.73,65.97 246.12,65.45 246.52,64.92 246.92,64.36 247.31,63.8 247.71,63.22 248.1,62.64 248.5,62.05 248.9,61.47 249.29,60.89 249.69,60.32 250.08,59.76 250.48,59.22 250.87,58.7 251.27,58.21 251.67,57.75 252.06,57.31 252.46,56.9 252.85,56.52 253.25,56.18 253.65,55.87 254.04,55.59 254.44,55.34 254.83,55.12 255.23,54.93 255.63,54.76 256.02,54.62 256.42,54.5 256.81,54.39 257.21,54.31 257.61,54.23 258,54.17 258.4,54.13 258.79,54.09 259.19,54.06 259.59,54.03 259.98,54.01 260.38,54 260.77,53.98 261.17,53.98 261.57,53.97" stroke-dasharray="none" stroke="rgb(31,120,180)" stroke-width="0.75" opacity="1" stroke-opacity="1" fill="none"/>
          </g>
          <g id="Fig:densplot_01.xyplot.lines.group.2.panel.1.1.1">
            <polyline id="Fig:densplot_01.xyplot.lines.group.2.panel.1.1.1.1" points="59.22,53.98 59.62,54 60.02,54.01 60.41,54.03 60.81,54.06 61.2,54.1 61.6,54.15 62,54.21 62.39,54.3 62.79,54.4 63.18,54.53 63.58,54.69 63.98,54.88 64.37,55.12 64.77,55.4 65.16,55.75 65.56,56.17 65.95,56.65 66.35,57.23 66.75,57.89 67.14,58.65 67.54,59.51 67.93,60.51 68.33,61.64 68.73,62.9 69.12,64.29 69.52,65.82 69.91,67.49 70.31,69.3 70.71,71.27 71.1,73.39 71.5,75.63 71.89,78 72.29,80.49 72.69,83.08 73.08,85.77 73.48,88.55 73.87,91.41 74.27,94.32 74.66,97.28 75.06,100.26 75.46,103.26 75.85,106.27 76.25,109.27 76.64,112.24 77.04,115.19 77.44,118.09 77.83,120.95 78.23,123.76 78.62,126.5 79.02,129.17 79.42,131.76 79.81,134.28 80.21,136.71 80.6,139.07 81,141.33 81.4,143.51 81.79,145.59 82.19,147.58 82.58,149.46 82.98,151.26 83.38,152.97 83.77,154.58 84.17,156.11 84.56,157.54 84.96,158.87 85.35,160.12 85.75,161.3 86.15,162.39 86.54,163.42 86.94,164.38 87.33,165.27 87.73,166.09 88.13,166.86 88.52,167.58 88.92,168.25 89.31,168.88 89.71,169.47 90.11,170.01 90.5,170.52 90.9,170.98 91.29,171.42 91.69,171.83 92.09,172.2 92.48,172.55 92.88,172.87 93.27,173.17 93.67,173.44 94.06,173.7 94.46,173.93 94.86,174.16 95.25,174.37 95.65,174.58 96.04,174.78 96.44,174.99 96.84,175.2 97.23,175.41 97.63,175.64 98.02,175.88 98.42,176.13 98.82,176.41 99.21,176.7 99.61,177.01 100,177.33 100.4,177.68 100.8,178.03 101.19,178.4 101.59,178.78 101.98,179.17 102.38,179.56 102.78,179.95 103.17,180.34 103.57,180.72 103.96,181.09 104.36,181.46 104.75,181.81 105.15,182.14 105.55,182.47 105.94,182.78 106.34,183.08 106.73,183.38 107.13,183.67 107.53,183.95 107.92,184.24 108.32,184.54 108.71,184.85 109.11,185.17 109.51,185.51 109.9,185.87 110.3,186.26 110.69,186.68 111.09,187.13 111.49,187.61 111.88,188.12 112.28,188.65 112.67,189.22 113.07,189.82 113.46,190.45 113.86,191.1 114.26,191.77 114.65,192.46 115.05,193.17 115.44,193.89 115.84,194.62 116.24,195.36 116.63,196.11 117.03,196.86 117.42,197.62 117.82,198.37 118.22,199.12 118.61,199.87 119.01,200.61 119.4,201.35 119.8,202.08 120.2,202.8 120.59,203.52 120.99,204.23 121.38,204.92 121.78,205.61 122.18,206.29 122.57,206.95 122.97,207.61 123.36,208.26 123.76,208.9 124.15,209.53 124.55,210.15 124.95,210.75 125.34,211.35 125.74,211.93 126.13,212.5 126.53,213.06 126.93,213.59 127.32,214.11 127.72,214.6 128.11,215.07 128.51,215.52 128.91,215.95 129.3,216.35 129.7,216.72 130.09,217.06 130.49,217.37 130.89,217.66 131.28,217.91 131.68,218.14 132.07,218.34 132.47,218.51 132.87,218.65 133.26,218.76 133.66,218.83 134.05,218.88 134.45,218.89 134.84,218.86 135.24,218.8 135.64,218.69 136.03,218.53 136.43,218.34 136.82,218.1 137.22,217.81 137.62,217.47 138.01,217.07 138.41,216.62 138.8,216.12 139.2,215.57 139.6,214.98 139.99,214.33 140.39,213.64 140.78,212.91 141.18,212.13 141.58,211.31 141.97,210.46 142.37,209.58 142.76,208.68 143.16,207.74 143.55,206.79 143.95,205.8 144.35,204.8 144.74,203.78 145.14,202.74 145.53,201.68 145.93,200.6 146.33,199.51 146.72,198.39 147.12,197.26 147.51,196.11 147.91,194.94 148.31,193.76 148.7,192.56 149.1,191.34 149.49,190.1 149.89,188.85 150.29,187.58 150.68,186.31 151.08,185.02 151.47,183.73 151.87,182.43 152.27,181.13 152.66,179.83 153.06,178.54 153.45,177.25 153.85,175.97 154.24,174.71 154.64,173.47 155.04,172.24 155.43,171.05 155.83,169.88 156.22,168.74 156.62,167.63 157.02,166.56 157.41,165.53 157.81,164.55 158.2,163.61 158.6,162.72 159,161.87 159.39,161.07 159.79,160.31 160.18,159.6 160.58,158.94 160.98,158.33 161.37,157.76 161.77,157.24 162.16,156.75 162.56,156.29 162.95,155.87 163.35,155.48 163.75,155.11 164.14,154.77 164.54,154.44 164.93,154.12 165.33,153.81 165.73,153.51 166.12,153.21 166.52,152.91 166.91,152.6 167.31,152.29 167.71,151.96 168.1,151.63 168.5,151.28 168.89,150.92 169.29,150.54 169.69,150.15 170.08,149.75 170.48,149.33 170.87,148.9 171.27,148.46 171.67,148.01 172.06,147.55 172.46,147.08 172.85,146.61 173.25,146.14 173.64,145.66 174.04,145.18 174.44,144.71 174.83,144.24 175.23,143.78 175.62,143.34 176.02,142.9 176.42,142.48 176.81,142.08 177.21,141.69 177.6,141.34 178,141 178.4,140.69 178.79,140.41 179.19,140.15 179.58,139.92 179.98,139.71 180.38,139.53 180.77,139.38 181.17,139.25 181.56,139.13 181.96,139.04 182.35,138.96 182.75,138.89 183.15,138.84 183.54,138.79 183.94,138.75 184.33,138.7 184.73,138.66 185.13,138.61 185.52,138.55 185.92,138.49 186.31,138.41 186.71,138.32 187.11,138.21 187.5,138.09 187.9,137.95 188.29,137.78 188.69,137.6 189.09,137.39 189.48,137.16 189.88,136.91 190.27,136.64 190.67,136.34 191.07,136.02 191.46,135.68 191.86,135.31 192.25,134.93 192.65,134.52 193.04,134.09 193.44,133.64 193.84,133.17 194.23,132.69 194.63,132.18 195.02,131.65 195.42,131.11 195.82,130.56 196.21,129.98 196.61,129.4 197,128.8 197.4,128.19 197.8,127.56 198.19,126.93 198.59,126.3 198.98,125.65 199.38,125.01 199.78,124.36 200.17,123.71 200.57,123.06 200.96,122.41 201.36,121.77 201.75,121.13 202.15,120.5 202.55,119.88 202.94,119.26 203.34,118.65 203.73,118.05 204.13,117.46 204.53,116.87 204.92,116.29 205.32,115.72 205.71,115.16 206.11,114.61 206.51,114.06 206.9,113.52 207.3,112.99 207.69,112.46 208.09,111.94 208.49,111.43 208.88,110.92 209.28,110.42 209.67,109.92 210.07,109.42 210.47,108.93 210.86,108.44 211.26,107.95 211.65,107.45 212.05,106.96 212.44,106.47 212.84,105.97 213.24,105.47 213.63,104.97 214.03,104.46 214.42,103.94 214.82,103.42 215.22,102.89 215.61,102.35 216.01,101.81 216.4,101.26 216.8,100.7 217.2,100.14 217.59,99.58 217.99,99.01 218.38,98.43 218.78,97.85 219.18,97.27 219.57,96.68 219.97,96.08 220.36,95.49 220.76,94.89 221.16,94.29 221.55,93.68 221.95,93.07 222.34,92.47 222.74,91.85 223.13,91.24 223.53,90.63 223.93,90.02 224.32,89.41 224.72,88.8 225.11,88.2 225.51,87.6 225.91,87.01 226.3,86.42 226.7,85.84 227.09,85.27 227.49,84.71 227.89,84.16 228.28,83.62 228.68,83.09 229.07,82.57 229.47,82.06 229.87,81.56 230.26,81.08 230.66,80.6 231.05,80.14 231.45,79.68 231.84,79.24 232.24,78.8 232.64,78.37 233.03,77.95 233.43,77.54 233.82,77.13 234.22,76.74 234.62,76.35 235.01,75.96 235.41,75.59 235.8,75.22 236.2,74.86 236.6,74.5 236.99,74.16 237.39,73.82 237.78,73.48 238.18,73.16 238.58,72.83 238.97,72.51 239.37,72.19 239.76,71.88 240.16,71.56 240.56,71.24 240.95,70.91 241.35,70.57 241.74,70.23 242.14,69.87 242.53,69.5 242.93,69.11 243.33,68.7 243.72,68.28 244.12,67.83 244.51,67.36 244.91,66.87 245.31,66.36 245.7,65.83 246.1,65.29 246.49,64.72 246.89,64.15 247.29,63.56 247.68,62.96 248.08,62.37 248.47,61.77 248.87,61.18 249.27,60.6 249.66,60.03 250.06,59.48 250.45,58.95 250.85,58.44 251.24,57.96 251.64,57.51 252.04,57.09 252.43,56.7 252.83,56.34 253.22,56.01 253.62,55.72 254.02,55.46 254.41,55.23 254.81,55.03 255.2,54.85 255.6,54.69 256,54.56 256.39,54.44 256.79,54.35 257.18,54.27 257.58,54.21 257.98,54.15 258.37,54.11 258.77,54.07 259.16,54.04 259.56,54.02 259.96,54 260.35,53.99 260.75,53.98 261.14,53.97 261.54,53.97" stroke-dasharray="none" stroke="rgb(31,120,180)" stroke-width="0.75" opacity="1" stroke-opacity="1" fill="none"/>
          </g>
          <g id="Fig:densplot_01.xyplot.lines.group.3.panel.1.1.1">
            <polyline id="Fig:densplot_01.xyplot.lines.group.3.panel.1.1.1.1" points="59.18,53.99 59.57,54 59.97,54.02 60.36,54.05 60.76,54.08 61.16,54.13 61.55,54.18 61.95,54.25 62.35,54.34 62.74,54.46 63.14,54.6 63.53,54.78 63.93,54.99 64.33,55.25 64.72,55.57 65.12,55.94 65.52,56.38 65.91,56.91 66.31,57.52 66.7,58.24 67.1,59.05 67.5,59.98 67.89,61.03 68.29,62.2 68.69,63.54 69.08,65.02 69.48,66.64 69.87,68.4 70.27,70.32 70.67,72.38 71.06,74.58 71.46,76.95 71.86,79.44 72.25,82.07 72.65,84.8 73.05,87.64 73.44,90.57 73.84,93.58 74.23,96.67 74.63,99.8 75.03,102.97 75.42,106.16 75.82,109.36 76.22,112.55 76.61,115.72 77.01,118.85 77.4,121.94 77.8,124.97 78.2,127.93 78.59,130.82 78.99,133.63 79.39,136.35 79.78,138.96 80.18,141.47 80.57,143.87 80.97,146.16 81.37,148.35 81.76,150.42 82.16,152.39 82.56,154.22 82.95,155.95 83.35,157.56 83.75,159.08 84.14,160.49 84.54,161.8 84.93,163.01 85.33,164.12 85.73,165.15 86.12,166.09 86.52,166.96 86.92,167.75 87.31,168.48 87.71,169.14 88.1,169.75 88.5,170.3 88.9,170.8 89.29,171.27 89.69,171.71 90.09,172.11 90.48,172.49 90.88,172.85 91.27,173.2 91.67,173.53 92.07,173.86 92.46,174.18 92.86,174.5 93.26,174.81 93.65,175.13 94.05,175.45 94.44,175.77 94.84,176.08 95.24,176.39 95.63,176.7 96.03,177 96.43,177.28 96.82,177.55 97.22,177.81 97.62,178.05 98.01,178.26 98.41,178.46 98.8,178.63 99.2,178.79 99.6,178.92 99.99,179.03 100.39,179.13 100.79,179.21 101.18,179.29 101.58,179.36 101.97,179.44 102.37,179.52 102.77,179.61 103.16,179.72 103.56,179.85 103.96,180 104.35,180.19 104.75,180.41 105.14,180.67 105.54,180.97 105.94,181.31 106.33,181.69 106.73,182.11 107.13,182.58 107.52,183.09 107.92,183.64 108.32,184.23 108.71,184.85 109.11,185.49 109.5,186.17 109.9,186.86 110.3,187.58 110.69,188.3 111.09,189.03 111.49,189.76 111.88,190.48 112.28,191.2 112.67,191.91 113.07,192.6 113.47,193.27 113.86,193.92 114.26,194.55 114.66,195.16 115.05,195.75 115.45,196.31 115.84,196.87 116.24,197.4 116.64,197.92 117.03,198.43 117.43,198.94 117.83,199.44 118.22,199.94 118.62,200.44 119.01,200.95 119.41,201.48 119.81,202.01 120.2,202.55 120.6,203.11 121,203.67 121.39,204.25 121.79,204.84 122.19,205.44 122.58,206.04 122.98,206.65 123.37,207.25 123.77,207.85 124.17,208.43 124.56,209 124.96,209.55 125.36,210.08 125.75,210.58 126.15,211.06 126.54,211.51 126.94,211.93 127.34,212.31 127.73,212.67 128.13,213 128.53,213.3 128.92,213.58 129.32,213.83 129.71,214.06 130.11,214.26 130.51,214.44 130.9,214.6 131.3,214.73 131.7,214.85 132.09,214.94 132.49,215 132.89,215.03 133.28,215.03 133.68,215 134.07,214.92 134.47,214.82 134.87,214.66 135.26,214.47 135.66,214.22 136.06,213.92 136.45,213.58 136.85,213.18 137.24,212.73 137.64,212.24 138.04,211.69 138.43,211.09 138.83,210.44 139.23,209.75 139.62,209.02 140.02,208.25 140.41,207.45 140.81,206.62 141.21,205.76 141.6,204.87 142,203.96 142.4,203.03 142.79,202.09 143.19,201.14 143.59,200.17 143.98,199.19 144.38,198.2 144.77,197.21 145.17,196.2 145.57,195.18 145.96,194.15 146.36,193.11 146.76,192.05 147.15,190.97 147.55,189.88 147.94,188.78 148.34,187.66 148.74,186.52 149.13,185.36 149.53,184.2 149.93,183.02 150.32,181.83 150.72,180.64 151.11,179.44 151.51,178.25 151.91,177.07 152.3,175.89 152.7,174.73 153.1,173.59 153.49,172.47 153.89,171.38 154.28,170.31 154.68,169.27 155.08,168.27 155.47,167.3 155.87,166.37 156.27,165.46 156.66,164.59 157.06,163.76 157.46,162.95 157.85,162.18 158.25,161.44 158.64,160.73 159.04,160.04 159.44,159.39 159.83,158.76 160.23,158.16 160.63,157.6 161.02,157.06 161.42,156.54 161.81,156.06 162.21,155.6 162.61,155.16 163,154.75 163.4,154.36 163.8,154 164.19,153.66 164.59,153.34 164.98,153.03 165.38,152.73 165.78,152.44 166.17,152.16 166.57,151.88 166.97,151.6 167.36,151.32 167.76,151.03 168.16,150.74 168.55,150.44 168.95,150.14 169.34,149.82 169.74,149.49 170.14,149.16 170.53,148.81 170.93,148.46 171.33,148.11 171.72,147.74 172.12,147.38 172.51,147.01 172.91,146.64 173.31,146.27 173.7,145.9 174.1,145.54 174.5,145.18 174.89,144.83 175.29,144.48 175.68,144.14 176.08,143.81 176.48,143.49 176.87,143.18 177.27,142.88 177.67,142.59 178.06,142.32 178.46,142.05 178.85,141.81 179.25,141.57 179.65,141.35 180.04,141.15 180.44,140.96 180.84,140.79 181.23,140.64 181.63,140.5 182.03,140.37 182.42,140.26 182.82,140.16 183.21,140.06 183.61,139.98 184.01,139.9 184.4,139.83 184.8,139.75 185.2,139.68 185.59,139.6 185.99,139.5 186.38,139.4 186.78,139.29 187.18,139.16 187.57,139.01 187.97,138.84 188.37,138.65 188.76,138.44 189.16,138.21 189.55,137.96 189.95,137.68 190.35,137.39 190.74,137.07 191.14,136.74 191.54,136.38 191.93,136.01 192.33,135.63 192.73,135.23 193.12,134.81 193.52,134.39 193.91,133.95 194.31,133.5 194.71,133.03 195.1,132.56 195.5,132.07 195.9,131.57 196.29,131.06 196.69,130.53 197.08,129.99 197.48,129.43 197.88,128.86 198.27,128.28 198.67,127.69 199.07,127.08 199.46,126.47 199.86,125.84 200.25,125.2 200.65,124.56 201.05,123.91 201.44,123.25 201.84,122.59 202.24,121.94 202.63,121.28 203.03,120.62 203.42,119.97 203.82,119.32 204.22,118.68 204.61,118.04 205.01,117.42 205.41,116.8 205.8,116.19 206.2,115.59 206.6,115 206.99,114.42 207.39,113.85 207.78,113.29 208.18,112.74 208.58,112.2 208.97,111.66 209.37,111.14 209.77,110.62 210.16,110.1 210.56,109.59 210.95,109.08 211.35,108.57 211.75,108.06 212.14,107.55 212.54,107.03 212.94,106.52 213.33,106 213.73,105.47 214.12,104.94 214.52,104.41 214.92,103.87 215.31,103.33 215.71,102.78 216.11,102.23 216.5,101.67 216.9,101.11 217.3,100.55 217.69,99.98 218.09,99.4 218.48,98.83 218.88,98.25 219.28,97.66 219.67,97.07 220.07,96.48 220.47,95.88 220.86,95.27 221.26,94.66 221.65,94.05 222.05,93.43 222.45,92.81 222.84,92.18 223.24,91.56 223.64,90.93 224.03,90.3 224.43,89.68 224.82,89.06 225.22,88.44 225.62,87.83 226.01,87.22 226.41,86.63 226.81,86.04 227.2,85.46 227.6,84.89 227.99,84.34 228.39,83.79 228.79,83.26 229.18,82.74 229.58,82.23 229.98,81.73 230.37,81.24 230.77,80.76 231.17,80.29 231.56,79.82 231.96,79.37 232.35,78.93 232.75,78.49 233.15,78.06 233.54,77.65 233.94,77.24 234.34,76.84 234.73,76.44 235.13,76.06 235.52,75.69 235.92,75.33 236.32,74.97 236.71,74.63 237.11,74.3 237.51,73.97 237.9,73.65 238.3,73.34 238.69,73.03 239.09,72.73 239.49,72.42 239.88,72.12 240.28,71.81 240.68,71.5 241.07,71.18 241.47,70.85 241.87,70.5 242.26,70.15 242.66,69.77 243.05,69.38 243.45,68.97 243.85,68.54 244.24,68.09 244.64,67.62 245.04,67.12 245.43,66.61 245.83,66.07 246.22,65.53 246.62,64.96 247.02,64.38 247.41,63.8 247.81,63.2 248.21,62.6 248.6,62.01 249,61.41 249.39,60.83 249.79,60.26 250.19,59.7 250.58,59.16 250.98,58.65 251.38,58.16 251.77,57.7 252.17,57.27 252.56,56.86 252.96,56.5 253.36,56.16 253.75,55.86 254.15,55.58 254.55,55.33 254.94,55.12 255.34,54.92 255.74,54.76 256.13,54.62 256.53,54.5 256.92,54.4 257.32,54.31 257.72,54.24 258.11,54.18 258.51,54.13 258.91,54.09 259.3,54.06 259.7,54.03 260.09,54.01 260.49,54 260.89,53.99 261.28,53.98 261.68,53.97" stroke-dasharray="none" stroke="rgb(31,120,180)" stroke-width="0.75" opacity="1" stroke-opacity="1" fill="none"/>
          </g>
          <g id="Fig:densplot_01.xyplot.lines.group.4.panel.1.1.1">
            <polyline id="Fig:densplot_01.xyplot.lines.group.4.panel.1.1.1.1" points="59.1,53.99 59.49,54 59.89,54.02 60.28,54.04 60.68,54.07 61.08,54.11 61.47,54.16 61.87,54.23 62.27,54.31 62.66,54.41 63.06,54.54 63.46,54.71 63.85,54.91 64.25,55.15 64.65,55.44 65.04,55.79 65.44,56.2 65.84,56.7 66.23,57.28 66.63,57.95 67.03,58.73 67.42,59.61 67.82,60.62 68.22,61.74 68.61,63.02 69.01,64.44 69.41,66.01 69.8,67.73 70.2,69.6 70.6,71.62 70.99,73.78 71.39,76.11 71.78,78.59 72.18,81.21 72.58,83.94 72.97,86.79 73.37,89.75 73.77,92.79 74.16,95.92 74.56,99.11 74.96,102.35 75.35,105.61 75.75,108.89 76.15,112.17 76.54,115.43 76.94,118.65 77.34,121.83 77.73,124.95 78.13,127.99 78.53,130.95 78.92,133.83 79.32,136.61 79.72,139.27 80.11,141.81 80.51,144.24 80.91,146.54 81.3,148.73 81.7,150.8 82.1,152.75 82.49,154.57 82.89,156.27 83.28,157.85 83.68,159.33 84.08,160.7 84.47,161.97 84.87,163.16 85.27,164.24 85.66,165.24 86.06,166.17 86.46,167.02 86.85,167.81 87.25,168.55 87.65,169.23 88.04,169.86 88.44,170.44 88.84,170.98 89.23,171.48 89.63,171.96 90.03,172.41 90.42,172.83 90.82,173.23 91.22,173.6 91.61,173.96 92.01,174.3 92.41,174.63 92.8,174.95 93.2,175.25 93.6,175.55 93.99,175.83 94.39,176.11 94.78,176.39 95.18,176.65 95.58,176.92 95.97,177.18 96.37,177.45 96.77,177.71 97.16,177.97 97.56,178.23 97.96,178.5 98.35,178.77 98.75,179.03 99.15,179.3 99.54,179.57 99.94,179.85 100.34,180.12 100.73,180.39 101.13,180.66 101.53,180.92 101.92,181.19 102.32,181.45 102.72,181.71 103.11,181.97 103.51,182.23 103.91,182.49 104.3,182.75 104.7,183.02 105.1,183.3 105.49,183.59 105.89,183.89 106.28,184.21 106.68,184.56 107.08,184.92 107.47,185.31 107.87,185.73 108.27,186.17 108.66,186.65 109.06,187.14 109.46,187.67 109.85,188.21 110.25,188.77 110.65,189.35 111.04,189.94 111.44,190.54 111.84,191.14 112.23,191.73 112.63,192.32 113.03,192.9 113.42,193.47 113.82,194.01 114.22,194.55 114.61,195.06 115.01,195.55 115.41,196.03 115.8,196.49 116.2,196.94 116.6,197.38 116.99,197.81 117.39,198.24 117.78,198.67 118.18,199.11 118.58,199.55 118.97,200.01 119.37,200.48 119.77,200.98 120.16,201.49 120.56,202.02 120.96,202.57 121.35,203.15 121.75,203.75 122.15,204.37 122.54,205 122.94,205.64 123.34,206.29 123.73,206.95 124.13,207.6 124.53,208.25 124.92,208.88 125.32,209.5 125.72,210.09 126.11,210.66 126.51,211.19 126.91,211.69 127.3,212.14 127.7,212.55 128.1,212.91 128.49,213.23 128.89,213.49 129.28,213.71 129.68,213.89 130.08,214 130.47,214.07 130.87,214.1 131.27,214.09 131.66,214.03 132.06,213.94 132.46,213.81 132.85,213.64 133.25,213.44 133.65,213.21 134.04,212.96 134.44,212.67 134.84,212.36 135.23,212.03 135.63,211.67 136.03,211.28 136.42,210.87 136.82,210.44 137.22,209.98 137.61,209.5 138.01,209 138.41,208.46 138.8,207.9 139.2,207.31 139.6,206.7 139.99,206.06 140.39,205.39 140.78,204.69 141.18,203.96 141.58,203.2 141.97,202.41 142.37,201.59 142.77,200.74 143.16,199.86 143.56,198.95 143.96,198.01 144.35,197.04 144.75,196.05 145.15,195.03 145.54,193.99 145.94,192.93 146.34,191.85 146.73,190.75 147.13,189.63 147.53,188.5 147.92,187.36 148.32,186.22 148.72,185.06 149.11,183.91 149.51,182.75 149.91,181.59 150.3,180.44 150.7,179.29 151.1,178.16 151.49,177.03 151.89,175.92 152.28,174.82 152.68,173.75 153.08,172.69 153.47,171.66 153.87,170.65 154.27,169.66 154.66,168.7 155.06,167.77 155.46,166.87 155.85,165.99 156.25,165.15 156.65,164.33 157.04,163.54 157.44,162.78 157.84,162.05 158.23,161.35 158.63,160.68 159.03,160.04 159.42,159.42 159.82,158.82 160.22,158.26 160.61,157.72 161.01,157.21 161.41,156.72 161.8,156.25 162.2,155.81 162.6,155.38 162.99,154.98 163.39,154.59 163.78,154.22 164.18,153.86 164.58,153.52 164.97,153.17 165.37,152.84 165.77,152.5 166.16,152.17 166.56,151.83 166.96,151.49 167.35,151.15 167.75,150.79 168.15,150.43 168.54,150.06 168.94,149.68 169.34,149.29 169.73,148.9 170.13,148.5 170.53,148.09 170.92,147.69 171.32,147.28 171.72,146.88 172.11,146.48 172.51,146.09 172.91,145.71 173.3,145.33 173.7,144.97 174.1,144.62 174.49,144.28 174.89,143.96 175.28,143.65 175.68,143.36 176.08,143.08 176.47,142.81 176.87,142.56 177.27,142.32 177.66,142.1 178.06,141.88 178.46,141.69 178.85,141.5 179.25,141.32 179.65,141.16 180.04,141.01 180.44,140.87 180.84,140.74 181.23,140.62 181.63,140.51 182.03,140.4 182.42,140.31 182.82,140.22 183.22,140.14 183.61,140.06 184.01,139.98 184.41,139.9 184.8,139.82 185.2,139.74 185.6,139.65 185.99,139.55 186.39,139.44 186.78,139.32 187.18,139.19 187.58,139.04 187.97,138.89 188.37,138.71 188.77,138.52 189.16,138.32 189.56,138.1 189.96,137.87 190.35,137.62 190.75,137.36 191.15,137.09 191.54,136.8 191.94,136.49 192.34,136.17 192.73,135.84 193.13,135.48 193.53,135.11 193.92,134.73 194.32,134.31 194.72,133.88 195.11,133.43 195.51,132.96 195.91,132.47 196.3,131.96 196.7,131.43 197.1,130.87 197.49,130.29 197.89,129.7 198.28,129.09 198.68,128.47 199.08,127.83 199.47,127.19 199.87,126.53 200.27,125.87 200.66,125.2 201.06,124.53 201.46,123.86 201.85,123.19 202.25,122.52 202.65,121.86 203.04,121.2 203.44,120.55 203.84,119.9 204.23,119.25 204.63,118.62 205.03,117.99 205.42,117.37 205.82,116.76 206.22,116.16 206.61,115.56 207.01,114.98 207.41,114.4 207.8,113.83 208.2,113.27 208.6,112.72 208.99,112.18 209.39,111.64 209.78,111.11 210.18,110.59 210.58,110.07 210.97,109.56 211.37,109.04 211.77,108.53 212.16,108.02 212.56,107.5 212.96,106.98 213.35,106.46 213.75,105.94 214.15,105.41 214.54,104.87 214.94,104.34 215.34,103.79 215.73,103.25 216.13,102.7 216.53,102.14 216.92,101.58 217.32,101.02 217.72,100.45 218.11,99.88 218.51,99.31 218.91,98.73 219.3,98.15 219.7,97.57 220.1,96.98 220.49,96.38 220.89,95.78 221.28,95.17 221.68,94.56 222.08,93.94 222.47,93.31 222.87,92.68 223.27,92.05 223.66,91.41 224.06,90.77 224.46,90.14 224.85,89.5 225.25,88.87 225.65,88.24 226.04,87.62 226.44,87 226.84,86.4 227.23,85.81 227.63,85.22 228.03,84.66 228.42,84.1 228.82,83.56 229.22,83.03 229.61,82.51 230.01,82 230.41,81.51 230.8,81.03 231.2,80.56 231.6,80.1 231.99,79.65 232.39,79.2 232.78,78.77 233.18,78.34 233.58,77.92 233.97,77.51 234.37,77.11 234.77,76.71 235.16,76.32 235.56,75.94 235.96,75.57 236.35,75.2 236.75,74.85 237.15,74.5 237.54,74.15 237.94,73.82 238.34,73.49 238.73,73.16 239.13,72.83 239.53,72.51 239.92,72.19 240.32,71.86 240.72,71.53 241.11,71.19 241.51,70.84 241.91,70.48 242.3,70.11 242.7,69.72 243.1,69.32 243.49,68.9 243.89,68.46 244.28,68.01 244.68,67.53 245.08,67.03 245.47,66.51 245.87,65.98 246.27,65.43 246.66,64.86 247.06,64.28 247.46,63.7 247.85,63.1 248.25,62.51 248.65,61.91 249.04,61.32 249.44,60.74 249.84,60.17 250.23,59.62 250.63,59.09 251.03,58.58 251.42,58.09 251.82,57.63 252.22,57.21 252.61,56.81 253.01,56.45 253.41,56.11 253.8,55.81 254.2,55.54 254.6,55.3 254.99,55.09 255.39,54.9 255.78,54.74 256.18,54.6 256.58,54.48 256.97,54.38 257.37,54.3 257.77,54.23 258.16,54.17 258.56,54.12 258.96,54.09 259.35,54.06 259.75,54.03 260.15,54.01 260.54,54 260.94,53.98 261.34,53.98 261.73,53.97" stroke-dasharray="none" stroke="rgb(31,120,180)" stroke-width="0.75" opacity="1" stroke-opacity="1" fill="none"/>
          </g>
          <g id="Fig:densplot_01.xyplot.lines.group.5.panel.1.1.1">
            <polyline id="Fig:densplot_01.xyplot.lines.group.5.panel.1.1.1.1" points="59.29,53.98 59.69,53.99 60.08,54.01 60.48,54.03 60.87,54.06 61.27,54.09 61.66,54.14 62.06,54.2 62.46,54.28 62.85,54.37 63.25,54.49 63.64,54.64 64.04,54.82 64.43,55.04 64.83,55.31 65.23,55.64 65.62,56.02 66.02,56.48 66.41,57.01 66.81,57.62 67.2,58.33 67.6,59.15 68,60.08 68.39,61.13 68.79,62.3 69.18,63.6 69.58,65.03 69.97,66.59 70.37,68.31 70.77,70.17 71.16,72.16 71.56,74.28 71.95,76.53 72.35,78.89 72.74,81.37 73.14,83.96 73.54,86.65 73.93,89.41 74.33,92.24 74.72,95.12 75.12,98.04 75.51,100.99 75.91,103.96 76.31,106.93 76.7,109.88 77.1,112.82 77.49,115.71 77.89,118.57 78.28,121.37 78.68,124.11 79.08,126.78 79.47,129.37 79.87,131.88 80.26,134.31 80.66,136.65 81.05,138.91 81.45,141.07 81.85,143.13 82.24,145.1 82.64,146.98 83.03,148.77 83.43,150.47 83.82,152.09 84.22,153.62 84.62,155.05 85.01,156.4 85.41,157.67 85.8,158.87 86.2,160 86.59,161.05 86.99,162.04 87.39,162.96 87.78,163.82 88.18,164.62 88.57,165.37 88.97,166.08 89.36,166.74 89.76,167.36 90.15,167.93 90.55,168.48 90.95,168.99 91.34,169.48 91.74,169.95 92.13,170.39 92.53,170.81 92.92,171.22 93.32,171.61 93.72,171.98 94.11,172.35 94.51,172.7 94.9,173.05 95.3,173.39 95.69,173.72 96.09,174.05 96.49,174.38 96.88,174.71 97.28,175.04 97.67,175.37 98.07,175.7 98.46,176.04 98.86,176.39 99.26,176.74 99.65,177.1 100.05,177.46 100.44,177.83 100.84,178.21 101.23,178.6 101.63,178.98 102.03,179.38 102.42,179.78 102.82,180.18 103.21,180.58 103.61,180.99 104,181.41 104.4,181.83 104.8,182.25 105.19,182.68 105.59,183.12 105.98,183.57 106.38,184.03 106.77,184.49 107.17,184.97 107.57,185.46 107.96,185.97 108.36,186.48 108.75,187.01 109.15,187.55 109.54,188.11 109.94,188.68 110.34,189.27 110.73,189.87 111.13,190.48 111.52,191.11 111.92,191.75 112.31,192.4 112.71,193.06 113.11,193.74 113.5,194.42 113.9,195.12 114.29,195.82 114.69,196.53 115.08,197.25 115.48,197.97 115.88,198.69 116.27,199.41 116.67,200.12 117.06,200.83 117.46,201.53 117.85,202.22 118.25,202.9 118.65,203.56 119.04,204.21 119.44,204.85 119.83,205.47 120.23,206.08 120.62,206.69 121.02,207.28 121.42,207.87 121.81,208.45 122.21,209.04 122.6,209.63 123,210.23 123.39,210.83 123.79,211.45 124.19,212.08 124.58,212.72 124.98,213.37 125.37,214.03 125.77,214.7 126.16,215.37 126.56,216.03 126.96,216.69 127.35,217.33 127.75,217.95 128.14,218.55 128.54,219.12 128.93,219.65 129.33,220.15 129.73,220.59 130.12,220.98 130.52,221.32 130.91,221.6 131.31,221.84 131.7,222.02 132.1,222.14 132.5,222.21 132.89,222.22 133.29,222.19 133.68,222.1 134.08,221.98 134.47,221.81 134.87,221.59 135.27,221.33 135.66,221.04 136.06,220.7 136.45,220.32 136.85,219.91 137.24,219.46 137.64,218.98 138.04,218.45 138.43,217.89 138.83,217.29 139.22,216.66 139.62,216 140.01,215.3 140.41,214.58 140.81,213.82 141.2,213.03 141.6,212.21 141.99,211.37 142.39,210.51 142.78,209.62 143.18,208.71 143.58,207.77 143.97,206.82 144.37,205.84 144.76,204.84 145.16,203.82 145.55,202.78 145.95,201.71 146.35,200.63 146.74,199.52 147.14,198.4 147.53,197.25 147.93,196.09 148.32,194.91 148.72,193.72 149.12,192.52 149.51,191.31 149.91,190.09 150.3,188.87 150.7,187.65 151.09,186.43 151.49,185.21 151.89,184 152.28,182.79 152.68,181.59 153.07,180.4 153.47,179.22 153.86,178.05 154.26,176.9 154.66,175.76 155.05,174.63 155.45,173.53 155.84,172.44 156.24,171.38 156.63,170.33 157.03,169.31 157.43,168.32 157.82,167.35 158.22,166.41 158.61,165.51 159.01,164.63 159.4,163.78 159.8,162.96 160.2,162.17 160.59,161.41 160.99,160.68 161.38,159.97 161.78,159.28 162.17,158.61 162.57,157.95 162.97,157.32 163.36,156.7 163.76,156.09 164.15,155.49 164.55,154.9 164.94,154.31 165.34,153.74 165.74,153.17 166.13,152.62 166.53,152.07 166.92,151.53 167.32,151 167.71,150.49 168.11,149.98 168.51,149.5 168.9,149.02 169.3,148.57 169.69,148.12 170.09,147.7 170.48,147.29 170.88,146.9 171.28,146.52 171.67,146.16 172.07,145.82 172.46,145.48 172.86,145.16 173.25,144.85 173.65,144.55 174.05,144.25 174.44,143.97 174.84,143.68 175.23,143.4 175.63,143.13 176.02,142.85 176.42,142.58 176.81,142.31 177.21,142.03 177.61,141.76 178,141.48 178.4,141.2 178.79,140.91 179.19,140.63 179.58,140.33 179.98,140.04 180.38,139.73 180.77,139.43 181.17,139.11 181.56,138.79 181.96,138.47 182.35,138.14 182.75,137.8 183.15,137.47 183.54,137.13 183.94,136.79 184.33,136.45 184.73,136.11 185.12,135.78 185.52,135.46 185.92,135.14 186.31,134.83 186.71,134.52 187.1,134.23 187.5,133.94 187.89,133.66 188.29,133.39 188.69,133.12 189.08,132.86 189.48,132.59 189.87,132.32 190.27,132.05 190.66,131.77 191.06,131.48 191.46,131.18 191.85,130.87 192.25,130.55 192.64,130.21 193.04,129.86 193.43,129.49 193.83,129.11 194.23,128.73 194.62,128.32 195.02,127.91 195.41,127.49 195.81,127.06 196.2,126.63 196.6,126.19 197,125.75 197.39,125.3 197.79,124.84 198.18,124.38 198.58,123.92 198.97,123.45 199.37,122.98 199.77,122.5 200.16,122.02 200.56,121.53 200.95,121.04 201.35,120.54 201.74,120.04 202.14,119.53 202.54,119.01 202.93,118.5 203.33,117.98 203.72,117.45 204.12,116.92 204.51,116.39 204.91,115.86 205.31,115.33 205.7,114.79 206.1,114.25 206.49,113.71 206.89,113.16 207.28,112.62 207.68,112.07 208.08,111.52 208.47,110.96 208.87,110.4 209.26,109.83 209.66,109.27 210.05,108.69 210.45,108.12 210.85,107.54 211.24,106.95 211.64,106.37 212.03,105.78 212.43,105.19 212.82,104.6 213.22,104.01 213.62,103.43 214.01,102.84 214.41,102.26 214.8,101.69 215.2,101.12 215.59,100.56 215.99,100.01 216.39,99.47 216.78,98.93 217.18,98.4 217.57,97.89 217.97,97.37 218.36,96.87 218.76,96.37 219.16,95.88 219.55,95.39 219.95,94.9 220.34,94.41 220.74,93.93 221.13,93.44 221.53,92.95 221.93,92.45 222.32,91.96 222.72,91.46 223.11,90.95 223.51,90.44 223.9,89.93 224.3,89.41 224.7,88.89 225.09,88.37 225.49,87.85 225.88,87.32 226.28,86.79 226.67,86.27 227.07,85.75 227.47,85.22 227.86,84.71 228.26,84.19 228.65,83.68 229.05,83.17 229.44,82.67 229.84,82.18 230.24,81.69 230.63,81.21 231.03,80.73 231.42,80.27 231.82,79.81 232.21,79.36 232.61,78.91 233.01,78.48 233.4,78.05 233.8,77.64 234.19,77.23 234.59,76.83 234.98,76.45 235.38,76.07 235.78,75.7 236.17,75.35 236.57,75 236.96,74.66 237.36,74.34 237.75,74.02 238.15,73.71 238.55,73.4 238.94,73.11 239.34,72.81 239.73,72.52 240.13,72.23 240.52,71.93 240.92,71.63 241.32,71.32 241.71,71.01 242.11,70.68 242.5,70.33 242.9,69.97 243.29,69.58 243.69,69.18 244.09,68.75 244.48,68.29 244.88,67.82 245.27,67.31 245.67,66.78 246.06,66.23 246.46,65.65 246.86,65.06 247.25,64.45 247.65,63.83 248.04,63.2 248.44,62.57 248.83,61.94 249.23,61.32 249.63,60.7 250.02,60.1 250.42,59.52 250.81,58.96 251.21,58.43 251.6,57.94 252,57.47 252.4,57.04 252.79,56.64 253.19,56.27 253.58,55.94 253.98,55.65 254.37,55.39 254.77,55.16 255.17,54.96 255.56,54.78 255.96,54.63 256.35,54.5 256.75,54.4 257.14,54.31 257.54,54.24 257.94,54.18 258.33,54.13 258.73,54.09 259.12,54.05 259.52,54.03 259.91,54.01 260.31,53.99 260.71,53.98 261.1,53.97 261.5,53.97" stroke-dasharray="none" stroke="rgb(31,120,180)" stroke-width="0.75" opacity="1" stroke-opacity="1" fill="none"/>
          </g>
          <g id="Fig:densplot_01.xyplot.lines.group.6.panel.1.1.1">
            <polyline id="Fig:densplot_01.xyplot.lines.group.6.panel.1.1.1.1" points="59.28,53.98 59.67,54 60.07,54.01 60.47,54.04 60.86,54.07 61.26,54.11 61.65,54.16 62.05,54.22 62.44,54.31 62.84,54.41 63.24,54.54 63.63,54.7 64.03,54.89 64.42,55.12 64.82,55.41 65.22,55.76 65.61,56.17 66.01,56.65 66.4,57.21 66.8,57.86 67.19,58.6 67.59,59.46 67.99,60.44 68.38,61.54 68.78,62.77 69.17,64.12 69.57,65.62 69.96,67.25 70.36,69.04 70.76,70.98 71.15,73.06 71.55,75.28 71.94,77.63 72.34,80.1 72.73,82.68 73.13,85.38 73.53,88.18 73.92,91.06 74.32,94.01 74.71,97.01 75.11,100.05 75.51,103.11 75.9,106.19 76.3,109.25 76.69,112.29 77.09,115.3 77.48,118.26 77.88,121.16 78.28,123.99 78.67,126.74 79.07,129.38 79.46,131.93 79.86,134.38 80.25,136.72 80.65,138.96 81.05,141.08 81.44,143.1 81.84,144.99 82.23,146.78 82.63,148.46 83.03,150.05 83.42,151.55 83.82,152.95 84.21,154.28 84.61,155.51 85,156.67 85.4,157.77 85.8,158.81 86.19,159.79 86.59,160.72 86.98,161.61 87.38,162.44 87.77,163.24 88.17,164.01 88.57,164.74 88.96,165.44 89.36,166.12 89.75,166.77 90.15,167.4 90.54,168 90.94,168.58 91.34,169.15 91.73,169.7 92.13,170.23 92.52,170.74 92.92,171.23 93.32,171.71 93.71,172.17 94.11,172.61 94.5,173.03 94.9,173.44 95.29,173.83 95.69,174.2 96.09,174.55 96.48,174.88 96.88,175.2 97.27,175.51 97.67,175.8 98.06,176.09 98.46,176.36 98.86,176.64 99.25,176.91 99.65,177.17 100.04,177.45 100.44,177.72 100.83,178.01 101.23,178.3 101.63,178.6 102.02,178.92 102.42,179.24 102.81,179.59 103.21,179.94 103.61,180.32 104,180.7 104.4,181.11 104.79,181.53 105.19,181.97 105.58,182.43 105.98,182.9 106.38,183.39 106.77,183.9 107.17,184.42 107.56,184.97 107.96,185.54 108.35,186.12 108.75,186.72 109.15,187.34 109.54,187.98 109.94,188.63 110.33,189.3 110.73,189.99 111.13,190.69 111.52,191.4 111.92,192.12 112.31,192.85 112.71,193.59 113.1,194.33 113.5,195.07 113.9,195.81 114.29,196.55 114.69,197.28 115.08,198 115.48,198.71 115.87,199.41 116.27,200.1 116.67,200.77 117.06,201.43 117.46,202.07 117.85,202.7 118.25,203.31 118.64,203.9 119.04,204.48 119.44,205.05 119.83,205.61 120.23,206.16 120.62,206.7 121.02,207.25 121.42,207.79 121.81,208.33 122.21,208.87 122.6,209.42 123,209.97 123.39,210.53 123.79,211.1 124.19,211.68 124.58,212.26 124.98,212.84 125.37,213.43 125.77,214.02 126.16,214.61 126.56,215.19 126.96,215.77 127.35,216.33 127.75,216.87 128.14,217.4 128.54,217.9 128.93,218.37 129.33,218.82 129.73,219.23 130.12,219.6 130.52,219.93 130.91,220.22 131.31,220.47 131.71,220.68 132.1,220.84 132.5,220.95 132.89,221.02 133.29,221.05 133.68,221.03 134.08,220.97 134.48,220.86 134.87,220.71 135.27,220.52 135.66,220.28 136.06,220 136.45,219.68 136.85,219.31 137.25,218.91 137.64,218.46 138.04,217.97 138.43,217.43 138.83,216.85 139.23,216.23 139.62,215.56 140.02,214.86 140.41,214.11 140.81,213.32 141.2,212.48 141.6,211.61 142,210.71 142.39,209.78 142.79,208.82 143.18,207.83 143.58,206.82 143.97,205.79 144.37,204.75 144.77,203.7 145.16,202.65 145.56,201.58 145.95,200.52 146.35,199.45 146.74,198.39 147.14,197.32 147.54,196.25 147.93,195.18 148.33,194.11 148.72,193.03 149.12,191.94 149.52,190.85 149.91,189.75 150.31,188.64 150.7,187.52 151.1,186.39 151.49,185.25 151.89,184.1 152.29,182.94 152.68,181.78 153.08,180.61 153.47,179.45 153.87,178.29 154.26,177.13 154.66,175.99 155.06,174.85 155.45,173.74 155.85,172.64 156.24,171.55 156.64,170.49 157.04,169.45 157.43,168.43 157.83,167.44 158.22,166.48 158.62,165.54 159.01,164.63 159.41,163.74 159.81,162.88 160.2,162.04 160.6,161.23 160.99,160.45 161.39,159.69 161.78,158.95 162.18,158.23 162.58,157.54 162.97,156.86 163.37,156.21 163.76,155.58 164.16,154.96 164.55,154.37 164.95,153.79 165.35,153.22 165.74,152.68 166.14,152.14 166.53,151.63 166.93,151.13 167.33,150.64 167.72,150.17 168.12,149.72 168.51,149.27 168.91,148.85 169.3,148.44 169.7,148.05 170.1,147.67 170.49,147.3 170.89,146.95 171.28,146.61 171.68,146.29 172.07,145.98 172.47,145.68 172.87,145.39 173.26,145.11 173.66,144.83 174.05,144.56 174.45,144.29 174.84,144.03 175.24,143.77 175.64,143.51 176.03,143.24 176.43,142.98 176.82,142.71 177.22,142.44 177.62,142.17 178.01,141.89 178.41,141.61 178.8,141.32 179.2,141.04 179.59,140.75 179.99,140.45 180.39,140.16 180.78,139.86 181.18,139.56 181.57,139.25 181.97,138.94 182.36,138.63 182.76,138.32 183.16,138 183.55,137.69 183.95,137.36 184.34,137.04 184.74,136.72 185.14,136.39 185.53,136.06 185.93,135.73 186.32,135.4 186.72,135.06 187.11,134.73 187.51,134.39 187.91,134.05 188.3,133.71 188.7,133.37 189.09,133.02 189.49,132.67 189.88,132.31 190.28,131.95 190.68,131.58 191.07,131.2 191.47,130.82 191.86,130.43 192.26,130.03 192.65,129.63 193.05,129.22 193.45,128.81 193.84,128.4 194.24,127.98 194.63,127.55 195.03,127.13 195.43,126.71 195.82,126.28 196.22,125.86 196.61,125.43 197.01,125.01 197.4,124.58 197.8,124.16 198.2,123.73 198.59,123.3 198.99,122.87 199.38,122.44 199.78,122 200.17,121.55 200.57,121.1 200.97,120.65 201.36,120.18 201.76,119.71 202.15,119.23 202.55,118.75 202.94,118.25 203.34,117.75 203.74,117.25 204.13,116.74 204.53,116.22 204.92,115.69 205.32,115.17 205.72,114.63 206.11,114.09 206.51,113.55 206.9,113 207.3,112.44 207.69,111.89 208.09,111.32 208.49,110.76 208.88,110.19 209.28,109.61 209.67,109.03 210.07,108.45 210.46,107.86 210.86,107.28 211.26,106.69 211.65,106.1 212.05,105.51 212.44,104.92 212.84,104.33 213.24,103.74 213.63,103.15 214.03,102.57 214.42,102 214.82,101.42 215.21,100.86 215.61,100.3 216.01,99.74 216.4,99.19 216.8,98.65 217.19,98.12 217.59,97.6 217.98,97.08 218.38,96.57 218.78,96.07 219.17,95.57 219.57,95.07 219.96,94.58 220.36,94.1 220.75,93.61 221.15,93.13 221.55,92.65 221.94,92.16 222.34,91.68 222.73,91.19 223.13,90.7 223.53,90.2 223.92,89.7 224.32,89.2 224.71,88.69 225.11,88.18 225.5,87.67 225.9,87.15 226.3,86.64 226.69,86.12 227.09,85.6 227.48,85.09 227.88,84.58 228.27,84.08 228.67,83.58 229.07,83.08 229.46,82.6 229.86,82.12 230.25,81.65 230.65,81.18 231.04,80.73 231.44,80.28 231.84,79.84 232.23,79.41 232.63,78.99 233.02,78.58 233.42,78.17 233.82,77.77 234.21,77.38 234.61,76.99 235,76.61 235.4,76.24 235.79,75.88 236.19,75.53 236.59,75.18 236.98,74.84 237.38,74.52 237.77,74.19 238.17,73.88 238.56,73.57 238.96,73.26 239.36,72.96 239.75,72.66 240.15,72.36 240.54,72.06 240.94,71.75 241.34,71.44 241.73,71.11 242.13,70.77 242.52,70.42 242.92,70.04 243.31,69.65 243.71,69.24 244.11,68.8 244.5,68.34 244.9,67.85 245.29,67.33 245.69,66.79 246.08,66.23 246.48,65.65 246.88,65.05 247.27,64.44 247.67,63.81 248.06,63.18 248.46,62.54 248.85,61.91 249.25,61.28 249.65,60.67 250.04,60.07 250.44,59.49 250.83,58.93 251.23,58.41 251.63,57.91 252.02,57.45 252.42,57.02 252.81,56.62 253.21,56.25 253.6,55.93 254,55.64 254.4,55.38 254.79,55.15 255.19,54.95 255.58,54.78 255.98,54.63 256.37,54.5 256.77,54.4 257.17,54.31 257.56,54.24 257.96,54.18 258.35,54.13 258.75,54.09 259.14,54.05 259.54,54.03 259.94,54.01 260.33,54 260.73,53.98 261.12,53.97 261.52,53.97" stroke-dasharray="none" stroke="rgb(31,120,180)" stroke-width="0.75" opacity="1" stroke-opacity="1" fill="none"/>
          </g>
          <g id="Fig:densplot_01.xyplot.lines.group.7.panel.1.1.1">
            <polyline id="Fig:densplot_01.xyplot.lines.group.7.panel.1.1.1.1" points="59.19,53.99 59.59,54.01 59.99,54.03 60.38,54.06 60.78,54.09 61.17,54.14 61.57,54.2 61.97,54.28 62.36,54.37 62.76,54.5 63.15,54.65 63.55,54.84 63.95,55.07 64.34,55.35 64.74,55.68 65.13,56.08 65.53,56.55 65.93,57.11 66.32,57.76 66.72,58.51 67.11,59.37 67.51,60.34 67.91,61.45 68.3,62.7 68.7,64.09 69.09,65.62 69.49,67.3 69.89,69.12 70.28,71.09 70.68,73.23 71.07,75.51 71.47,77.93 71.87,80.48 72.26,83.14 72.66,85.92 73.05,88.78 73.45,91.74 73.85,94.77 74.24,97.84 74.64,100.95 75.04,104.07 75.43,107.2 75.83,110.32 76.22,113.41 76.62,116.45 77.02,119.43 77.41,122.35 77.81,125.19 78.2,127.94 78.6,130.61 79,133.17 79.39,135.61 79.79,137.95 80.18,140.17 80.58,142.29 80.98,144.3 81.37,146.2 81.77,148 82.16,149.67 82.56,151.25 82.96,152.73 83.35,154.12 83.75,155.43 84.14,156.66 84.54,157.81 84.94,158.87 85.33,159.87 85.73,160.81 86.12,161.69 86.52,162.52 86.92,163.3 87.31,164.03 87.71,164.72 88.1,165.36 88.5,165.97 88.9,166.55 89.29,167.1 89.69,167.62 90.09,168.12 90.48,168.59 90.88,169.04 91.27,169.48 91.67,169.89 92.07,170.29 92.46,170.68 92.86,171.05 93.25,171.4 93.65,171.74 94.05,172.06 94.44,172.37 94.84,172.66 95.23,172.93 95.63,173.19 96.03,173.43 96.42,173.66 96.82,173.87 97.21,174.07 97.61,174.26 98.01,174.43 98.4,174.6 98.8,174.75 99.19,174.9 99.59,175.04 99.99,175.18 100.38,175.31 100.78,175.45 101.17,175.59 101.57,175.73 101.97,175.89 102.36,176.05 102.76,176.22 103.16,176.4 103.55,176.6 103.95,176.82 104.34,177.06 104.74,177.32 105.14,177.6 105.53,177.92 105.93,178.25 106.32,178.62 106.72,179.02 107.12,179.45 107.51,179.92 107.91,180.42 108.3,180.96 108.7,181.53 109.1,182.14 109.49,182.79 109.89,183.47 110.28,184.19 110.68,184.94 111.08,185.72 111.47,186.53 111.87,187.36 112.26,188.21 112.66,189.09 113.06,189.98 113.45,190.89 113.85,191.8 114.24,192.72 114.64,193.64 115.04,194.55 115.43,195.46 115.83,196.37 116.22,197.25 116.62,198.13 117.02,198.98 117.41,199.82 117.81,200.64 118.21,201.43 118.6,202.2 119,202.93 119.39,203.65 119.79,204.33 120.19,204.99 120.58,205.63 120.98,206.24 121.37,206.82 121.77,207.39 122.17,207.93 122.56,208.46 122.96,208.97 123.35,209.48 123.75,209.97 124.15,210.46 124.54,210.94 124.94,211.42 125.33,211.91 125.73,212.38 126.13,212.86 126.52,213.34 126.92,213.82 127.31,214.29 127.71,214.76 128.11,215.22 128.5,215.67 128.9,216.1 129.29,216.52 129.69,216.91 130.09,217.28 130.48,217.62 130.88,217.92 131.28,218.19 131.67,218.43 132.07,218.62 132.46,218.77 132.86,218.86 133.26,218.91 133.65,218.91 134.05,218.86 134.44,218.76 134.84,218.61 135.24,218.4 135.63,218.14 136.03,217.82 136.42,217.46 136.82,217.05 137.22,216.59 137.61,216.08 138.01,215.53 138.4,214.92 138.8,214.28 139.2,213.6 139.59,212.88 139.99,212.13 140.38,211.35 140.78,210.53 141.18,209.69 141.57,208.82 141.97,207.92 142.36,207.01 142.76,206.08 143.16,205.13 143.55,204.17 143.95,203.19 144.34,202.2 144.74,201.2 145.14,200.19 145.53,199.17 145.93,198.15 146.33,197.11 146.72,196.08 147.12,195.03 147.51,193.98 147.91,192.92 148.31,191.86 148.7,190.79 149.1,189.71 149.49,188.62 149.89,187.53 150.29,186.42 150.68,185.31 151.08,184.18 151.47,183.05 151.87,181.9 152.27,180.74 152.66,179.57 153.06,178.4 153.45,177.22 153.85,176.04 154.25,174.86 154.64,173.69 155.04,172.52 155.43,171.38 155.83,170.25 156.23,169.14 156.62,168.07 157.02,167.02 157.41,166.01 157.81,165.04 158.21,164.12 158.6,163.25 159,162.42 159.4,161.63 159.79,160.9 160.19,160.21 160.58,159.56 160.98,158.97 161.38,158.41 161.77,157.9 162.17,157.41 162.56,156.96 162.96,156.54 163.36,156.15 163.75,155.78 164.15,155.44 164.54,155.11 164.94,154.79 165.34,154.49 165.73,154.2 166.13,153.91 166.52,153.63 166.92,153.36 167.32,153.08 167.71,152.81 168.11,152.54 168.5,152.26 168.9,151.98 169.3,151.7 169.69,151.41 170.09,151.12 170.48,150.82 170.88,150.52 171.28,150.2 171.67,149.88 172.07,149.55 172.46,149.21 172.86,148.87 173.26,148.52 173.65,148.16 174.05,147.79 174.45,147.42 174.84,147.05 175.24,146.67 175.63,146.3 176.03,145.92 176.43,145.54 176.82,145.17 177.22,144.8 177.61,144.44 178.01,144.09 178.41,143.74 178.8,143.4 179.2,143.07 179.59,142.74 179.99,142.43 180.39,142.12 180.78,141.83 181.18,141.54 181.57,141.26 181.97,141 182.37,140.74 182.76,140.49 183.16,140.25 183.55,140.02 183.95,139.8 184.35,139.59 184.74,139.39 185.14,139.2 185.53,139.02 185.93,138.84 186.33,138.66 186.72,138.49 187.12,138.32 187.52,138.15 187.91,137.97 188.31,137.78 188.7,137.58 189.1,137.36 189.5,137.12 189.89,136.86 190.29,136.57 190.68,136.25 191.08,135.9 191.48,135.52 191.87,135.1 192.27,134.65 192.66,134.16 193.06,133.65 193.46,133.1 193.85,132.53 194.25,131.93 194.64,131.3 195.04,130.66 195.44,130.01 195.83,129.35 196.23,128.68 196.62,128.01 197.02,127.35 197.42,126.68 197.81,126.03 198.21,125.39 198.6,124.75 199,124.13 199.4,123.53 199.79,122.94 200.19,122.36 200.58,121.8 200.98,121.24 201.38,120.7 201.77,120.17 202.17,119.65 202.57,119.14 202.96,118.63 203.36,118.12 203.75,117.62 204.15,117.12 204.55,116.62 204.94,116.13 205.34,115.63 205.73,115.14 206.13,114.65 206.53,114.15 206.92,113.66 207.32,113.17 207.71,112.68 208.11,112.19 208.51,111.7 208.9,111.21 209.3,110.72 209.69,110.23 210.09,109.74 210.49,109.24 210.88,108.73 211.28,108.22 211.67,107.7 212.07,107.16 212.47,106.61 212.86,106.05 213.26,105.48 213.65,104.89 214.05,104.27 214.45,103.64 214.84,103 215.24,102.34 215.63,101.66 216.03,100.97 216.43,100.27 216.82,99.55 217.22,98.83 217.62,98.11 218.01,97.38 218.41,96.65 218.8,95.93 219.2,95.22 219.6,94.51 219.99,93.82 220.39,93.14 220.78,92.47 221.18,91.83 221.58,91.19 221.97,90.58 222.37,89.98 222.76,89.41 223.16,88.85 223.56,88.31 223.95,87.78 224.35,87.26 224.74,86.76 225.14,86.27 225.54,85.79 225.93,85.32 226.33,84.86 226.72,84.41 227.12,83.96 227.52,83.51 227.91,83.07 228.31,82.64 228.7,82.2 229.1,81.77 229.5,81.34 229.89,80.92 230.29,80.49 230.69,80.07 231.08,79.66 231.48,79.25 231.87,78.84 232.27,78.44 232.67,78.05 233.06,77.66 233.46,77.28 233.85,76.92 234.25,76.56 234.65,76.21 235.04,75.88 235.44,75.55 235.83,75.24 236.23,74.93 236.63,74.64 237.02,74.35 237.42,74.07 237.81,73.8 238.21,73.54 238.61,73.28 239,73.02 239.4,72.76 239.79,72.5 240.19,72.24 240.59,71.97 240.98,71.69 241.38,71.4 241.77,71.1 242.17,70.78 242.57,70.43 242.96,70.07 243.36,69.69 243.75,69.28 244.15,68.84 244.55,68.38 244.94,67.89 245.34,67.37 245.74,66.83 246.13,66.26 246.53,65.68 246.92,65.07 247.32,64.45 247.72,63.82 248.11,63.18 248.51,62.54 248.9,61.91 249.3,61.28 249.7,60.66 250.09,60.06 250.49,59.48 250.88,58.93 251.28,58.4 251.68,57.9 252.07,57.44 252.47,57.01 252.86,56.61 253.26,56.25 253.66,55.93 254.05,55.64 254.45,55.38 254.84,55.15 255.24,54.95 255.64,54.78 256.03,54.63 256.43,54.51 256.82,54.4 257.22,54.31 257.62,54.24 258.01,54.18 258.41,54.13 258.81,54.09 259.2,54.06 259.6,54.03 259.99,54.01 260.39,54 260.79,53.98 261.18,53.98 261.58,53.97" stroke-dasharray="none" stroke="rgb(31,120,180)" stroke-width="0.75" opacity="1" stroke-opacity="1" fill="none"/>
          </g>
          <g id="Fig:densplot_01.xyplot.lines.group.8.panel.1.1.1">
            <polyline id="Fig:densplot_01.xyplot.lines.group.8.panel.1.1.1.1" points="59.08,53.99 59.47,54 59.87,54.02 60.27,54.05 60.66,54.08 61.06,54.12 61.46,54.18 61.85,54.25 62.25,54.33 62.65,54.44 63.04,54.58 63.44,54.76 63.84,54.97 64.23,55.22 64.63,55.53 65.02,55.9 65.42,56.33 65.82,56.86 66.21,57.47 66.61,58.18 67.01,59 67.4,59.93 67.8,60.98 68.2,62.16 68.59,63.51 68.99,65 69.39,66.65 69.78,68.44 70.18,70.39 70.58,72.5 70.97,74.76 71.37,77.18 71.77,79.75 72.16,82.45 72.56,85.27 72.96,88.2 73.35,91.22 73.75,94.33 74.15,97.5 74.54,100.73 74.94,103.98 75.34,107.24 75.73,110.49 76.13,113.73 76.53,116.93 76.92,120.07 77.32,123.14 77.71,126.13 78.11,129.03 78.51,131.84 78.9,134.54 79.3,137.14 79.7,139.61 80.09,141.96 80.49,144.19 80.89,146.31 81.28,148.31 81.68,150.2 82.08,151.98 82.47,153.65 82.87,155.2 83.27,156.66 83.66,158.02 84.06,159.29 84.46,160.48 84.85,161.59 85.25,162.6 85.65,163.54 86.04,164.42 86.44,165.22 86.84,165.97 87.23,166.65 87.63,167.28 88.03,167.86 88.42,168.39 88.82,168.87 89.22,169.32 89.61,169.74 90.01,170.12 90.41,170.47 90.8,170.8 91.2,171.11 91.59,171.4 91.99,171.68 92.39,171.94 92.78,172.19 93.18,172.44 93.58,172.68 93.97,172.91 94.37,173.14 94.77,173.37 95.16,173.6 95.56,173.82 95.96,174.05 96.35,174.27 96.75,174.5 97.15,174.73 97.54,174.96 97.94,175.19 98.34,175.42 98.73,175.65 99.13,175.89 99.53,176.13 99.92,176.38 100.32,176.62 100.72,176.88 101.11,177.13 101.51,177.39 101.91,177.66 102.3,177.94 102.7,178.22 103.1,178.51 103.49,178.81 103.89,179.12 104.29,179.45 104.68,179.79 105.08,180.15 105.47,180.53 105.87,180.93 106.27,181.35 106.66,181.79 107.06,182.25 107.46,182.74 107.85,183.25 108.25,183.79 108.65,184.35 109.04,184.93 109.44,185.53 109.84,186.14 110.23,186.77 110.63,187.41 111.03,188.07 111.42,188.72 111.82,189.39 112.22,190.05 112.61,190.71 113.01,191.37 113.41,192.03 113.8,192.68 114.2,193.33 114.6,193.97 114.99,194.6 115.39,195.23 115.79,195.85 116.18,196.47 116.58,197.08 116.98,197.69 117.37,198.3 117.77,198.9 118.17,199.5 118.56,200.09 118.96,200.69 119.35,201.28 119.75,201.87 120.15,202.46 120.54,203.05 120.94,203.63 121.34,204.21 121.73,204.79 122.13,205.37 122.53,205.95 122.92,206.52 123.32,207.08 123.72,207.64 124.11,208.2 124.51,208.74 124.91,209.27 125.3,209.79 125.7,210.29 126.1,210.78 126.49,211.24 126.89,211.69 127.29,212.1 127.68,212.49 128.08,212.85 128.48,213.19 128.87,213.49 129.27,213.76 129.67,214 130.06,214.2 130.46,214.37 130.86,214.52 131.25,214.63 131.65,214.71 132.05,214.76 132.44,214.79 132.84,214.78 133.23,214.74 133.63,214.67 134.03,214.56 134.42,214.42 134.82,214.25 135.22,214.04 135.61,213.78 136.01,213.47 136.41,213.12 136.8,212.72 137.2,212.28 137.6,211.78 137.99,211.23 138.39,210.62 138.79,209.97 139.18,209.26 139.58,208.51 139.98,207.72 140.37,206.88 140.77,206.01 141.17,205.1 141.56,204.16 141.96,203.19 142.36,202.2 142.75,201.2 143.15,200.17 143.55,199.13 143.94,198.08 144.34,197.01 144.74,195.93 145.13,194.84 145.53,193.74 145.93,192.62 146.32,191.5 146.72,190.37 147.11,189.22 147.51,188.06 147.91,186.9 148.3,185.72 148.7,184.54 149.1,183.35 149.49,182.16 149.89,180.97 150.29,179.78 150.68,178.6 151.08,177.42 151.48,176.26 151.87,175.1 152.27,173.97 152.67,172.85 153.06,171.76 153.46,170.68 153.86,169.64 154.25,168.62 154.65,167.63 155.05,166.67 155.44,165.75 155.84,164.86 156.24,164.01 156.63,163.19 157.03,162.41 157.43,161.66 157.82,160.96 158.22,160.31 158.62,159.69 159.01,159.11 159.41,158.58 159.81,158.08 160.2,157.62 160.6,157.2 160.99,156.82 161.39,156.47 161.79,156.15 162.18,155.86 162.58,155.6 162.98,155.36 163.37,155.13 163.77,154.92 164.17,154.72 164.56,154.52 164.96,154.32 165.36,154.13 165.75,153.93 166.15,153.72 166.55,153.5 166.94,153.27 167.34,153.03 167.74,152.77 168.13,152.5 168.53,152.21 168.93,151.92 169.32,151.6 169.72,151.28 170.12,150.95 170.51,150.61 170.91,150.26 171.31,149.92 171.7,149.57 172.1,149.22 172.5,148.87 172.89,148.53 173.29,148.19 173.69,147.86 174.08,147.54 174.48,147.23 174.87,146.93 175.27,146.65 175.67,146.37 176.06,146.11 176.46,145.86 176.86,145.62 177.25,145.39 177.65,145.18 178.05,144.97 178.44,144.78 178.84,144.59 179.24,144.42 179.63,144.25 180.03,144.09 180.43,143.94 180.82,143.8 181.22,143.65 181.62,143.52 182.01,143.38 182.41,143.25 182.81,143.12 183.2,142.98 183.6,142.85 184,142.71 184.39,142.56 184.79,142.41 185.19,142.25 185.58,142.09 185.98,141.9 186.38,141.71 186.77,141.5 187.17,141.28 187.57,141.04 187.96,140.79 188.36,140.52 188.75,140.22 189.15,139.91 189.55,139.57 189.94,139.22 190.34,138.85 190.74,138.46 191.13,138.05 191.53,137.62 191.93,137.17 192.32,136.71 192.72,136.23 193.12,135.74 193.51,135.24 193.91,134.72 194.31,134.19 194.7,133.66 195.1,133.11 195.5,132.56 195.89,132 196.29,131.44 196.69,130.86 197.08,130.29 197.48,129.7 197.88,129.11 198.27,128.51 198.67,127.91 199.07,127.31 199.46,126.7 199.86,126.08 200.26,125.47 200.65,124.85 201.05,124.22 201.44,123.6 201.84,122.98 202.24,122.36 202.63,121.74 203.03,121.12 203.43,120.51 203.82,119.91 204.22,119.31 204.62,118.71 205.01,118.13 205.41,117.55 205.81,116.98 206.2,116.41 206.6,115.86 207,115.31 207.39,114.76 207.79,114.23 208.19,113.69 208.58,113.16 208.98,112.64 209.38,112.11 209.77,111.58 210.17,111.06 210.57,110.53 210.96,110 211.36,109.46 211.76,108.92 212.15,108.37 212.55,107.82 212.95,107.26 213.34,106.69 213.74,106.11 214.14,105.52 214.53,104.92 214.93,104.31 215.32,103.7 215.72,103.07 216.12,102.43 216.51,101.79 216.91,101.13 217.31,100.47 217.7,99.8 218.1,99.12 218.5,98.44 218.89,97.75 219.29,97.06 219.69,96.37 220.08,95.68 220.48,94.99 220.88,94.3 221.27,93.62 221.67,92.94 222.07,92.27 222.46,91.61 222.86,90.96 223.26,90.32 223.65,89.69 224.05,89.07 224.45,88.47 224.84,87.88 225.24,87.31 225.64,86.75 226.03,86.21 226.43,85.68 226.83,85.16 227.22,84.65 227.62,84.15 228.02,83.66 228.41,83.19 228.81,82.71 229.2,82.25 229.6,81.79 230,81.34 230.39,80.89 230.79,80.45 231.19,80.01 231.58,79.58 231.98,79.16 232.38,78.74 232.77,78.33 233.17,77.93 233.57,77.54 233.96,77.16 234.36,76.8 234.76,76.44 235.15,76.09 235.55,75.76 235.95,75.44 236.34,75.13 236.74,74.83 237.14,74.55 237.53,74.27 237.93,74 238.33,73.73 238.72,73.47 239.12,73.22 239.52,72.96 239.91,72.7 240.31,72.43 240.71,72.16 241.1,71.87 241.5,71.58 241.9,71.26 242.29,70.92 242.69,70.57 243.08,70.19 243.48,69.78 243.88,69.35 244.27,68.89 244.67,68.4 245.07,67.88 245.46,67.34 245.86,66.77 246.26,66.18 246.65,65.57 247.05,64.94 247.45,64.3 247.84,63.65 248.24,62.99 248.64,62.34 249.03,61.69 249.43,61.05 249.83,60.43 250.22,59.83 250.62,59.26 251.02,58.71 251.41,58.19 251.81,57.7 252.21,57.25 252.6,56.83 253,56.45 253.4,56.11 253.79,55.8 254.19,55.52 254.59,55.28 254.98,55.06 255.38,54.87 255.78,54.71 256.17,54.58 256.57,54.46 256.96,54.36 257.36,54.28 257.76,54.21 258.15,54.16 258.55,54.11 258.95,54.08 259.34,54.05 259.74,54.02 260.14,54.01 260.53,53.99 260.93,53.98 261.33,53.97 261.72,53.97" stroke-dasharray="none" stroke="rgb(31,120,180)" stroke-width="0.75" opacity="1" stroke-opacity="1" fill="none"/>
          </g>
          <g id="Fig:densplot_01.xyplot.lines.group.9.panel.1.1.1">
            <polyline id="Fig:densplot_01.xyplot.lines.group.9.panel.1.1.1.1" points="59,54 59.4,54.02 59.79,54.04 60.19,54.07 60.59,54.11 60.98,54.17 61.38,54.24 61.78,54.32 62.18,54.43 62.57,54.57 62.97,54.73 63.37,54.94 63.76,55.2 64.16,55.51 64.56,55.88 64.95,56.32 65.35,56.84 65.75,57.44 66.14,58.15 66.54,58.98 66.94,59.92 67.33,60.99 67.73,62.19 68.13,63.53 68.53,65.02 68.92,66.68 69.32,68.5 69.72,70.47 70.11,72.59 70.51,74.86 70.91,77.27 71.3,79.83 71.7,82.52 72.1,85.34 72.49,88.26 72.89,91.26 73.29,94.34 73.68,97.48 74.08,100.66 74.48,103.88 74.88,107.1 75.27,110.32 75.67,113.52 76.07,116.68 76.46,119.8 76.86,122.86 77.26,125.85 77.65,128.75 78.05,131.56 78.45,134.28 78.84,136.9 79.24,139.42 79.64,141.83 80.03,144.11 80.43,146.27 80.83,148.31 81.23,150.24 81.62,152.05 82.02,153.75 82.42,155.34 82.81,156.81 83.21,158.16 83.61,159.41 84,160.57 84.4,161.64 84.8,162.62 85.19,163.52 85.59,164.34 85.99,165.1 86.38,165.79 86.78,166.43 87.18,167.02 87.58,167.57 87.97,168.08 88.37,168.56 88.77,169.01 89.16,169.43 89.56,169.84 89.96,170.23 90.35,170.61 90.75,170.97 91.15,171.33 91.54,171.67 91.94,172.01 92.34,172.34 92.73,172.66 93.13,172.98 93.53,173.29 93.93,173.6 94.32,173.91 94.72,174.21 95.12,174.5 95.51,174.8 95.91,175.09 96.31,175.38 96.7,175.66 97.1,175.94 97.5,176.22 97.89,176.5 98.29,176.77 98.69,177.05 99.08,177.32 99.48,177.58 99.88,177.84 100.28,178.1 100.67,178.35 101.07,178.6 101.47,178.85 101.86,179.09 102.26,179.33 102.66,179.57 103.05,179.8 103.45,180.04 103.85,180.27 104.24,180.51 104.64,180.75 105.04,181 105.43,181.26 105.83,181.54 106.23,181.82 106.63,182.12 107.02,182.44 107.42,182.78 107.82,183.15 108.21,183.54 108.61,183.95 109.01,184.39 109.4,184.86 109.8,185.35 110.2,185.87 110.59,186.41 110.99,186.98 111.39,187.57 111.78,188.17 112.18,188.79 112.58,189.43 112.98,190.07 113.37,190.73 113.77,191.39 114.17,192.06 114.56,192.73 114.96,193.4 115.36,194.08 115.75,194.75 116.15,195.43 116.55,196.1 116.94,196.78 117.34,197.46 117.74,198.14 118.13,198.82 118.53,199.5 118.93,200.19 119.33,200.89 119.72,201.58 120.12,202.29 120.52,202.99 120.91,203.7 121.31,204.4 121.71,205.11 122.1,205.81 122.5,206.5 122.9,207.19 123.29,207.86 123.69,208.52 124.09,209.15 124.48,209.77 124.88,210.35 125.28,210.9 125.68,211.43 126.07,211.91 126.47,212.37 126.87,212.78 127.26,213.15 127.66,213.47 128.06,213.76 128.45,214 128.85,214.21 129.25,214.37 129.64,214.49 130.04,214.57 130.44,214.61 130.83,214.62 131.23,214.59 131.63,214.53 132.03,214.44 132.42,214.32 132.82,214.16 133.22,213.98 133.61,213.77 134.01,213.54 134.41,213.28 134.8,213 135.2,212.69 135.6,212.35 135.99,211.99 136.39,211.6 136.79,211.18 137.18,210.74 137.58,210.26 137.98,209.75 138.38,209.2 138.77,208.62 139.17,207.99 139.57,207.33 139.96,206.63 140.36,205.89 140.76,205.11 141.15,204.28 141.55,203.41 141.95,202.5 142.34,201.56 142.74,200.58 143.14,199.57 143.53,198.53 143.93,197.46 144.33,196.37 144.73,195.25 145.12,194.12 145.52,192.97 145.92,191.81 146.31,190.64 146.71,189.46 147.11,188.28 147.5,187.08 147.9,185.89 148.3,184.69 148.69,183.48 149.09,182.27 149.49,181.06 149.88,179.85 150.28,178.64 150.68,177.42 151.08,176.21 151.47,175 151.87,173.79 152.27,172.58 152.66,171.39 153.06,170.2 153.46,169.02 153.85,167.86 154.25,166.73 154.65,165.61 155.04,164.52 155.44,163.47 155.84,162.46 156.23,161.49 156.63,160.56 157.03,159.68 157.43,158.85 157.82,158.09 158.22,157.39 158.62,156.75 159.01,156.18 159.41,155.66 159.81,155.2 160.2,154.8 160.6,154.47 161,154.19 161.39,153.95 161.79,153.75 162.19,153.59 162.58,153.46 162.98,153.35 163.38,153.26 163.78,153.18 164.17,153.09 164.57,153.01 164.97,152.92 165.36,152.81 165.76,152.69 166.16,152.55 166.55,152.39 166.95,152.2 167.35,151.99 167.74,151.77 168.14,151.52 168.54,151.25 168.93,150.97 169.33,150.67 169.73,150.36 170.13,150.04 170.52,149.71 170.92,149.39 171.32,149.06 171.71,148.73 172.11,148.4 172.51,148.08 172.9,147.77 173.3,147.46 173.7,147.15 174.09,146.86 174.49,146.57 174.89,146.29 175.28,146.01 175.68,145.74 176.08,145.48 176.48,145.23 176.87,144.98 177.27,144.73 177.67,144.49 178.06,144.26 178.46,144.03 178.86,143.8 179.25,143.58 179.65,143.36 180.05,143.15 180.44,142.94 180.84,142.73 181.24,142.52 181.63,142.31 182.03,142.11 182.43,141.9 182.83,141.7 183.22,141.49 183.62,141.29 184.02,141.08 184.41,140.87 184.81,140.66 185.21,140.45 185.6,140.23 186,140.01 186.4,139.78 186.79,139.55 187.19,139.31 187.59,139.06 187.98,138.81 188.38,138.54 188.78,138.27 189.18,137.98 189.57,137.67 189.97,137.36 190.37,137.03 190.76,136.69 191.16,136.33 191.56,135.95 191.95,135.57 192.35,135.16 192.75,134.75 193.14,134.32 193.54,133.88 193.94,133.43 194.33,132.96 194.73,132.49 195.13,132 195.53,131.51 195.92,131.01 196.32,130.5 196.72,129.99 197.11,129.47 197.51,128.95 197.91,128.41 198.3,127.88 198.7,127.34 199.1,126.79 199.49,126.24 199.89,125.69 200.29,125.13 200.68,124.57 201.08,124 201.48,123.43 201.88,122.86 202.27,122.29 202.67,121.72 203.07,121.15 203.46,120.58 203.86,120.01 204.26,119.45 204.65,118.89 205.05,118.34 205.45,117.8 205.84,117.27 206.24,116.75 206.64,116.23 207.03,115.73 207.43,115.23 207.83,114.74 208.23,114.26 208.62,113.79 209.02,113.32 209.42,112.85 209.81,112.39 210.21,111.92 210.61,111.45 211,110.97 211.4,110.48 211.8,109.98 212.19,109.47 212.59,108.94 212.99,108.4 213.38,107.84 213.78,107.26 214.18,106.67 214.58,106.05 214.97,105.42 215.37,104.77 215.77,104.1 216.16,103.42 216.56,102.72 216.96,102.01 217.35,101.29 217.75,100.56 218.15,99.82 218.54,99.07 218.94,98.32 219.34,97.57 219.73,96.82 220.13,96.07 220.53,95.32 220.93,94.58 221.32,93.85 221.72,93.12 222.12,92.41 222.51,91.71 222.91,91.02 223.31,90.35 223.7,89.7 224.1,89.06 224.5,88.45 224.89,87.86 225.29,87.29 225.69,86.74 226.08,86.21 226.48,85.7 226.88,85.2 227.28,84.73 227.67,84.28 228.07,83.84 228.47,83.42 228.86,83.01 229.26,82.61 229.66,82.22 230.05,81.84 230.45,81.47 230.85,81.1 231.24,80.73 231.64,80.37 232.04,80.01 232.43,79.66 232.83,79.3 233.23,78.95 233.63,78.6 234.02,78.24 234.42,77.9 234.82,77.55 235.21,77.21 235.61,76.86 236.01,76.53 236.4,76.19 236.8,75.85 237.2,75.52 237.59,75.19 237.99,74.86 238.39,74.52 238.78,74.19 239.18,73.85 239.58,73.51 239.98,73.17 240.37,72.82 240.77,72.46 241.17,72.09 241.56,71.71 241.96,71.32 242.36,70.91 242.75,70.49 243.15,70.05 243.55,69.6 243.94,69.12 244.34,68.63 244.74,68.11 245.13,67.57 245.53,67.02 245.93,66.45 246.33,65.87 246.72,65.27 247.12,64.65 247.52,64.03 247.91,63.41 248.31,62.78 248.71,62.16 249.1,61.54 249.5,60.93 249.9,60.34 250.29,59.77 250.69,59.22 251.09,58.69 251.48,58.19 251.88,57.72 252.28,57.28 252.68,56.88 253.07,56.5 253.47,56.16 253.87,55.86 254.26,55.58 254.66,55.33 255.06,55.11 255.45,54.93 255.85,54.76 256.25,54.62 256.64,54.5 257.04,54.4 257.44,54.31 257.83,54.24 258.23,54.18 258.63,54.13 259.03,54.09 259.42,54.06 259.82,54.03 260.22,54.01 260.61,54 261.01,53.99 261.41,53.98 261.8,53.97" stroke-dasharray="none" stroke="rgb(31,120,180)" stroke-width="0.75" opacity="1" stroke-opacity="1" fill="none"/>
          </g>
          <g id="Fig:densplot_01.xyplot.lines.group.10.panel.1.1.1">
            <polyline id="Fig:densplot_01.xyplot.lines.group.10.panel.1.1.1.1" points="59.12,53.99 59.51,54.01 59.91,54.03 60.3,54.05 60.7,54.09 61.1,54.13 61.49,54.19 61.89,54.26 62.29,54.36 62.68,54.47 63.08,54.62 63.48,54.8 63.87,55.02 64.27,55.28 64.66,55.6 65.06,55.97 65.46,56.42 65.85,56.96 66.25,57.58 66.65,58.29 67.04,59.12 67.44,60.05 67.84,61.1 68.23,62.29 68.63,63.63 69.02,65.11 69.42,66.73 69.82,68.5 70.21,70.42 70.61,72.49 71.01,74.7 71.4,77.07 71.8,79.58 72.2,82.21 72.59,84.95 72.99,87.8 73.38,90.73 73.78,93.75 74.18,96.84 74.57,99.96 74.97,103.12 75.37,106.29 75.76,109.46 76.16,112.62 76.56,115.75 76.95,118.82 77.35,121.84 77.74,124.8 78.14,127.68 78.54,130.48 78.93,133.19 79.33,135.8 79.73,138.3 80.12,140.7 80.52,143 80.92,145.19 81.31,147.29 81.71,149.28 82.11,151.17 82.5,152.95 82.9,154.62 83.29,156.21 83.69,157.7 84.09,159.11 84.48,160.43 84.88,161.67 85.28,162.81 85.67,163.88 86.07,164.87 86.47,165.8 86.86,166.66 87.26,167.46 87.65,168.2 88.05,168.88 88.45,169.51 88.84,170.1 89.24,170.64 89.64,171.15 90.03,171.63 90.43,172.07 90.83,172.48 91.22,172.87 91.62,173.23 92.01,173.57 92.41,173.88 92.81,174.17 93.2,174.44 93.6,174.69 94,174.91 94.39,175.11 94.79,175.29 95.19,175.45 95.58,175.58 95.98,175.7 96.37,175.8 96.77,175.88 97.17,175.96 97.56,176.02 97.96,176.07 98.36,176.12 98.75,176.18 99.15,176.23 99.55,176.29 99.94,176.36 100.34,176.44 100.74,176.54 101.13,176.65 101.53,176.78 101.92,176.93 102.32,177.1 102.72,177.3 103.11,177.51 103.51,177.75 103.91,178.01 104.3,178.3 104.7,178.61 105.1,178.95 105.49,179.31 105.89,179.7 106.28,180.12 106.68,180.56 107.08,181.03 107.47,181.52 107.87,182.04 108.27,182.57 108.66,183.13 109.06,183.71 109.46,184.31 109.85,184.92 110.25,185.54 110.64,186.18 111.04,186.83 111.44,187.48 111.83,188.14 112.23,188.8 112.63,189.46 113.02,190.12 113.42,190.79 113.82,191.46 114.21,192.13 114.61,192.8 115,193.47 115.4,194.14 115.8,194.82 116.19,195.49 116.59,196.17 116.99,196.86 117.38,197.54 117.78,198.23 118.18,198.92 118.57,199.61 118.97,200.29 119.37,200.97 119.76,201.64 120.16,202.3 120.55,202.96 120.95,203.6 121.35,204.22 121.74,204.83 122.14,205.43 122.54,206 122.93,206.57 123.33,207.11 123.73,207.64 124.12,208.16 124.52,208.66 124.91,209.15 125.31,209.63 125.71,210.1 126.1,210.56 126.5,211.01 126.9,211.46 127.29,211.89 127.69,212.32 128.09,212.73 128.48,213.13 128.88,213.51 129.27,213.88 129.67,214.22 130.07,214.53 130.46,214.81 130.86,215.05 131.26,215.26 131.65,215.43 132.05,215.56 132.45,215.65 132.84,215.67 133.24,215.65 133.63,215.58 134.03,215.45 134.43,215.27 134.82,215.04 135.22,214.76 135.62,214.42 136.01,214.02 136.41,213.57 136.81,213.08 137.2,212.54 137.6,211.96 138,211.33 138.39,210.65 138.79,209.94 139.18,209.2 139.58,208.42 139.98,207.61 140.37,206.77 140.77,205.91 141.17,205.02 141.56,204.12 141.96,203.19 142.36,202.25 142.75,201.29 143.15,200.32 143.54,199.34 143.94,198.34 144.34,197.34 144.73,196.33 145.13,195.32 145.53,194.3 145.92,193.28 146.32,192.25 146.72,191.21 147.11,190.18 147.51,189.14 147.9,188.1 148.3,187.06 148.7,186.01 149.09,184.96 149.49,183.91 149.89,182.85 150.28,181.79 150.68,180.73 151.08,179.66 151.47,178.59 151.87,177.51 152.26,176.43 152.66,175.34 153.06,174.25 153.45,173.16 153.85,172.07 154.25,170.98 154.64,169.9 155.04,168.82 155.44,167.75 155.83,166.7 156.23,165.67 156.62,164.66 157.02,163.68 157.42,162.73 157.81,161.83 158.21,160.97 158.61,160.16 159,159.41 159.4,158.71 159.8,158.07 160.19,157.48 160.59,156.97 160.99,156.51 161.38,156.11 161.78,155.77 162.17,155.47 162.57,155.22 162.97,155.01 163.36,154.83 163.76,154.68 164.16,154.55 164.55,154.43 164.95,154.31 165.35,154.2 165.74,154.08 166.14,153.95 166.53,153.81 166.93,153.64 167.33,153.46 167.72,153.27 168.12,153.05 168.52,152.81 168.91,152.56 169.31,152.28 169.71,152 170.1,151.71 170.5,151.4 170.89,151.09 171.29,150.78 171.69,150.47 172.08,150.15 172.48,149.84 172.88,149.54 173.27,149.23 173.67,148.94 174.07,148.65 174.46,148.36 174.86,148.09 175.25,147.82 175.65,147.55 176.05,147.3 176.44,147.05 176.84,146.81 177.24,146.57 177.63,146.35 178.03,146.12 178.43,145.91 178.82,145.7 179.22,145.49 179.62,145.29 180.01,145.09 180.41,144.89 180.8,144.69 181.2,144.5 181.6,144.3 181.99,144.09 182.39,143.89 182.79,143.68 183.18,143.46 183.58,143.24 183.98,143.01 184.37,142.77 184.77,142.52 185.16,142.27 185.56,142.01 185.96,141.74 186.35,141.47 186.75,141.19 187.15,140.9 187.54,140.6 187.94,140.3 188.34,139.98 188.73,139.66 189.13,139.33 189.52,138.99 189.92,138.63 190.32,138.26 190.71,137.88 191.11,137.48 191.51,137.07 191.9,136.63 192.3,136.18 192.7,135.72 193.09,135.23 193.49,134.72 193.88,134.2 194.28,133.66 194.68,133.1 195.07,132.53 195.47,131.95 195.87,131.35 196.26,130.75 196.66,130.14 197.06,129.53 197.45,128.91 197.85,128.29 198.25,127.67 198.64,127.05 199.04,126.43 199.43,125.82 199.83,125.21 200.23,124.61 200.62,124.02 201.02,123.43 201.42,122.84 201.81,122.26 202.21,121.69 202.61,121.13 203,120.57 203.4,120.02 203.79,119.48 204.19,118.94 204.59,118.41 204.98,117.88 205.38,117.36 205.78,116.85 206.17,116.34 206.57,115.83 206.97,115.33 207.36,114.83 207.76,114.33 208.15,113.82 208.55,113.32 208.95,112.81 209.34,112.29 209.74,111.77 210.14,111.24 210.53,110.71 210.93,110.16 211.33,109.61 211.72,109.04 212.12,108.47 212.51,107.88 212.91,107.28 213.31,106.67 213.7,106.05 214.1,105.41 214.5,104.77 214.89,104.11 215.29,103.44 215.69,102.77 216.08,102.08 216.48,101.39 216.88,100.69 217.27,99.98 217.67,99.26 218.06,98.55 218.46,97.82 218.86,97.1 219.25,96.38 219.65,95.67 220.05,94.95 220.44,94.25 220.84,93.55 221.24,92.86 221.63,92.19 222.03,91.52 222.42,90.88 222.82,90.24 223.22,89.63 223.61,89.03 224.01,88.45 224.41,87.88 224.8,87.33 225.2,86.8 225.6,86.29 225.99,85.78 226.39,85.29 226.78,84.82 227.18,84.35 227.58,83.9 227.97,83.45 228.37,83.01 228.77,82.58 229.16,82.15 229.56,81.73 229.96,81.32 230.35,80.91 230.75,80.51 231.14,80.11 231.54,79.72 231.94,79.33 232.33,78.95 232.73,78.57 233.13,78.2 233.52,77.84 233.92,77.48 234.32,77.13 234.71,76.79 235.11,76.45 235.5,76.12 235.9,75.8 236.3,75.47 236.69,75.16 237.09,74.84 237.49,74.53 237.88,74.22 238.28,73.91 238.68,73.6 239.07,73.28 239.47,72.96 239.87,72.64 240.26,72.3 240.66,71.96 241.05,71.61 241.45,71.25 241.85,70.87 242.24,70.47 242.64,70.06 243.04,69.63 243.43,69.18 243.83,68.71 244.23,68.22 244.62,67.71 245.02,67.18 245.41,66.64 245.81,66.07 246.21,65.49 246.6,64.9 247,64.29 247.4,63.68 247.79,63.07 248.19,62.45 248.59,61.84 248.98,61.23 249.38,60.64 249.77,60.06 250.17,59.5 250.57,58.96 250.96,58.45 251.36,57.97 251.76,57.51 252.15,57.09 252.55,56.7 252.95,56.34 253.34,56.02 253.74,55.73 254.13,55.46 254.53,55.23 254.93,55.02 255.32,54.84 255.72,54.69 256.12,54.56 256.51,54.45 256.91,54.35 257.31,54.27 257.7,54.21 258.1,54.15 258.5,54.11 258.89,54.07 259.29,54.05 259.68,54.02 260.08,54.01 260.48,53.99 260.87,53.98 261.27,53.97 261.67,53.97" stroke-dasharray="none" stroke="rgb(31,120,180)" stroke-width="0.75" opacity="1" stroke-opacity="1" fill="none"/>
          </g>
        </g>
        <g id="Fig:densplot_01.panel.1.1.off.vp.2">
          <g id="Fig:densplot_01.border.panel.1.1.1">
            <rect id="Fig:densplot_01.border.panel.1.1.1.1" x="44.8" y="42.19" width="231.2" height="191.81" transform="" stroke="rgb(0,0,0)" stroke-dasharray="none" stroke-width="0.75" opacity="1" fill="none" stroke-opacity="1" fill-opacity="0"/>
          </g>
        </g>
        <g id="Fig:densplot_01..1"/>
      </g>
    </g>
  </g>
</svg>